<?xml version="1.0" encoding="utf-8" standalone="no"?>
<!DOCTYPE svg PUBLIC "-//W3C//DTD SVG 1.1//EN"
  "http://www.w3.org/Graphics/SVG/1.1/DTD/svg11.dtd">
<!-- Created with matplotlib (http://matplotlib.org/) -->
<svg height="576pt" version="1.1" viewBox="0 0 792 576" width="792pt" xmlns="http://www.w3.org/2000/svg" xmlns:xlink="http://www.w3.org/1999/xlink">
 <defs>
  <style type="text/css">
*{stroke-linecap:butt;stroke-linejoin:round;stroke-miterlimit:100000;}
  </style>
 </defs>
 <g id="figure_1">
  <g id="patch_1">
   <path d="M 0 576 
L 792 576 
L 792 0 
L 0 0 
z
" style="fill:#ffffff;"/>
  </g>
  <g id="axes_1">
   <g id="patch_2">
    <path d="M 99 518.4 
L 712.8 518.4 
L 712.8 57.6 
L 99 57.6 
z
" style="fill:#ffffff;"/>
   </g>
   <g id="line2d_1">
    <path clip-path="url(#pcb9f92c75b)" d="M 105.138 513.903513 
L 111.276 287.280562 
L 117.414 229.725527 
L 129.69 200.048712 
L 160.38 156.882436 
L 191.07 142.493677 
L 252.45 135.299297 
L 313.83 138.896487 
L 375.21 137.99719 
L 436.59 134.4 
L 528.66 151.486651 
L 620.73 159.580328 
L 712.8 166.774707 
" style="fill:none;stroke:#0000ff;stroke-linecap:square;stroke-width:2.0;"/>
   </g>
   <g id="line2d_2">
    <path clip-path="url(#pcb9f92c75b)" d="M 105.138 164.466518 
L 111.276 139.818498 
L 117.414 172.492406 
L 129.69 172.614639 
L 160.38 134.4 
L 191.07 164.629488 
L 252.45 161.573945 
L 313.83 165.159115 
L 375.21 159.577658 
L 436.59 162.79616 
L 528.66 160.433205 
L 620.73 161.736915 
L 712.8 167.522071 
" style="fill:none;stroke:#ff0000;stroke-linecap:square;stroke-width:2.0;"/>
   </g>
   <g id="line2d_3">
    <defs>
     <path d="M 0 4 
C 1.060812 4 2.078319 3.578535 2.828427 2.828427 
C 3.578535 2.078319 4 1.060812 4 0 
C 4 -1.060812 3.578535 -2.078319 2.828427 -2.828427 
C 2.078319 -3.578535 1.060812 -4 0 -4 
C -1.060812 -4 -2.078319 -3.578535 -2.828427 -2.828427 
C -3.578535 -2.078319 -4 -1.060812 -4 0 
C -4 1.060812 -3.578535 2.078319 -2.828427 2.828427 
C -2.078319 3.578535 -1.060812 4 0 4 
z
" id="mb4231a5937" style="stroke:#000000;stroke-width:0.5;"/>
    </defs>
    <g clip-path="url(#pcb9f92c75b)">
     <use style="fill:#0000ff;stroke:#000000;stroke-width:0.5;" x="105.138" xlink:href="#mb4231a5937" y="513.90351288"/>
     <use style="fill:#0000ff;stroke:#000000;stroke-width:0.5;" x="111.276" xlink:href="#mb4231a5937" y="287.280562061"/>
     <use style="fill:#0000ff;stroke:#000000;stroke-width:0.5;" x="117.414" xlink:href="#mb4231a5937" y="229.725526932"/>
     <use style="fill:#0000ff;stroke:#000000;stroke-width:0.5;" x="129.69" xlink:href="#mb4231a5937" y="200.048711944"/>
     <use style="fill:#0000ff;stroke:#000000;stroke-width:0.5;" x="160.38" xlink:href="#mb4231a5937" y="156.882435597"/>
     <use style="fill:#0000ff;stroke:#000000;stroke-width:0.5;" x="191.07" xlink:href="#mb4231a5937" y="142.493676815"/>
     <use style="fill:#0000ff;stroke:#000000;stroke-width:0.5;" x="252.45" xlink:href="#mb4231a5937" y="135.299297424"/>
     <use style="fill:#0000ff;stroke:#000000;stroke-width:0.5;" x="313.83" xlink:href="#mb4231a5937" y="138.89648712"/>
     <use style="fill:#0000ff;stroke:#000000;stroke-width:0.5;" x="375.21" xlink:href="#mb4231a5937" y="137.997189695"/>
     <use style="fill:#0000ff;stroke:#000000;stroke-width:0.5;" x="436.59" xlink:href="#mb4231a5937" y="134.4"/>
     <use style="fill:#0000ff;stroke:#000000;stroke-width:0.5;" x="528.66" xlink:href="#mb4231a5937" y="151.486651054"/>
     <use style="fill:#0000ff;stroke:#000000;stroke-width:0.5;" x="620.73" xlink:href="#mb4231a5937" y="159.580327869"/>
     <use style="fill:#0000ff;stroke:#000000;stroke-width:0.5;" x="712.8" xlink:href="#mb4231a5937" y="166.77470726"/>
    </g>
   </g>
   <g id="line2d_4">
    <defs>
     <path d="M 0 4 
C 1.060812 4 2.078319 3.578535 2.828427 2.828427 
C 3.578535 2.078319 4 1.060812 4 0 
C 4 -1.060812 3.578535 -2.078319 2.828427 -2.828427 
C 2.078319 -3.578535 1.060812 -4 0 -4 
C -1.060812 -4 -2.078319 -3.578535 -2.828427 -2.828427 
C -3.578535 -2.078319 -4 -1.060812 -4 0 
C -4 1.060812 -3.578535 2.078319 -2.828427 2.828427 
C -2.078319 3.578535 -1.060812 4 0 4 
z
" id="m23ef1af546" style="stroke:#000000;stroke-width:0.5;"/>
    </defs>
    <g clip-path="url(#pcb9f92c75b)">
     <use style="fill:#ff0000;stroke:#000000;stroke-width:0.5;" x="105.138" xlink:href="#m23ef1af546" y="164.466518138"/>
     <use style="fill:#ff0000;stroke:#000000;stroke-width:0.5;" x="111.276" xlink:href="#m23ef1af546" y="139.818497884"/>
     <use style="fill:#ff0000;stroke:#000000;stroke-width:0.5;" x="117.414" xlink:href="#m23ef1af546" y="172.492406417"/>
     <use style="fill:#ff0000;stroke:#000000;stroke-width:0.5;" x="129.69" xlink:href="#m23ef1af546" y="172.614638617"/>
     <use style="fill:#ff0000;stroke:#000000;stroke-width:0.5;" x="160.38" xlink:href="#m23ef1af546" y="134.4"/>
     <use style="fill:#ff0000;stroke:#000000;stroke-width:0.5;" x="191.07" xlink:href="#m23ef1af546" y="164.62948793"/>
     <use style="fill:#ff0000;stroke:#000000;stroke-width:0.5;" x="252.45" xlink:href="#m23ef1af546" y="161.573945179"/>
     <use style="fill:#ff0000;stroke:#000000;stroke-width:0.5;" x="313.83" xlink:href="#m23ef1af546" y="165.15911547"/>
     <use style="fill:#ff0000;stroke:#000000;stroke-width:0.5;" x="375.21" xlink:href="#m23ef1af546" y="159.577657507"/>
     <use style="fill:#ff0000;stroke:#000000;stroke-width:0.5;" x="436.59" xlink:href="#m23ef1af546" y="162.796160337"/>
     <use style="fill:#ff0000;stroke:#000000;stroke-width:0.5;" x="528.66" xlink:href="#m23ef1af546" y="160.433205203"/>
     <use style="fill:#ff0000;stroke:#000000;stroke-width:0.5;" x="620.73" xlink:href="#m23ef1af546" y="161.736914971"/>
     <use style="fill:#ff0000;stroke:#000000;stroke-width:0.5;" x="712.8" xlink:href="#m23ef1af546" y="167.522070603"/>
    </g>
   </g>
   <g id="patch_3">
    <path d="M 99 57.6 
L 712.8 57.6 
" style="fill:none;stroke:#000000;stroke-linecap:square;stroke-linejoin:miter;"/>
   </g>
   <g id="patch_4">
    <path d="M 712.8 518.4 
L 712.8 57.6 
" style="fill:none;stroke:#000000;stroke-linecap:square;stroke-linejoin:miter;"/>
   </g>
   <g id="patch_5">
    <path d="M 99 518.4 
L 712.8 518.4 
" style="fill:none;stroke:#000000;stroke-linecap:square;stroke-linejoin:miter;"/>
   </g>
   <g id="patch_6">
    <path d="M 99 518.4 
L 99 57.6 
" style="fill:none;stroke:#000000;stroke-linecap:square;stroke-linejoin:miter;"/>
   </g>
   <g id="matplotlib.axis_1">
    <g id="xtick_1">
     <g id="line2d_5">
      <defs>
       <path d="M 0 0 
L 0 -4 
" id="m9935cdee0d" style="stroke:#000000;stroke-width:0.5;"/>
      </defs>
      <g>
       <use style="stroke:#000000;stroke-width:0.5;" x="99.0" xlink:href="#m9935cdee0d" y="518.4"/>
      </g>
     </g>
     <g id="line2d_6">
      <defs>
       <path d="M 0 0 
L 0 4 
" id="m846710b9a7" style="stroke:#000000;stroke-width:0.5;"/>
      </defs>
      <g>
       <use style="stroke:#000000;stroke-width:0.5;" x="99.0" xlink:href="#m846710b9a7" y="57.6"/>
      </g>
     </g>
     <g id="text_1">
      <!-- 0 -->
      <defs>
       <path d="M 31.78125 66.40625 
Q 24.171875 66.40625 20.328125 58.90625 
Q 16.5 51.421875 16.5 36.375 
Q 16.5 21.390625 20.328125 13.890625 
Q 24.171875 6.390625 31.78125 6.390625 
Q 39.453125 6.390625 43.28125 13.890625 
Q 47.125 21.390625 47.125 36.375 
Q 47.125 51.421875 43.28125 58.90625 
Q 39.453125 66.40625 31.78125 66.40625 
M 31.78125 74.21875 
Q 44.046875 74.21875 50.515625 64.515625 
Q 56.984375 54.828125 56.984375 36.375 
Q 56.984375 17.96875 50.515625 8.265625 
Q 44.046875 -1.421875 31.78125 -1.421875 
Q 19.53125 -1.421875 13.0625 8.265625 
Q 6.59375 17.96875 6.59375 36.375 
Q 6.59375 54.828125 13.0625 64.515625 
Q 19.53125 74.21875 31.78125 74.21875 
" id="BitstreamVeraSans-Roman-30"/>
      </defs>
      <g transform="translate(95.1825 531.518125)scale(0.12 -0.12)">
       <use xlink:href="#BitstreamVeraSans-Roman-30"/>
      </g>
     </g>
    </g>
    <g id="xtick_2">
     <g id="line2d_7">
      <g>
       <use style="stroke:#000000;stroke-width:0.5;" x="221.76" xlink:href="#m9935cdee0d" y="518.4"/>
      </g>
     </g>
     <g id="line2d_8">
      <g>
       <use style="stroke:#000000;stroke-width:0.5;" x="221.76" xlink:href="#m846710b9a7" y="57.6"/>
      </g>
     </g>
     <g id="text_2">
      <!-- 20 -->
      <defs>
       <path d="M 19.1875 8.296875 
L 53.609375 8.296875 
L 53.609375 0 
L 7.328125 0 
L 7.328125 8.296875 
Q 12.9375 14.109375 22.625 23.890625 
Q 32.328125 33.6875 34.8125 36.53125 
Q 39.546875 41.84375 41.421875 45.53125 
Q 43.3125 49.21875 43.3125 52.78125 
Q 43.3125 58.59375 39.234375 62.25 
Q 35.15625 65.921875 28.609375 65.921875 
Q 23.96875 65.921875 18.8125 64.3125 
Q 13.671875 62.703125 7.8125 59.421875 
L 7.8125 69.390625 
Q 13.765625 71.78125 18.9375 73 
Q 24.125 74.21875 28.421875 74.21875 
Q 39.75 74.21875 46.484375 68.546875 
Q 53.21875 62.890625 53.21875 53.421875 
Q 53.21875 48.921875 51.53125 44.890625 
Q 49.859375 40.875 45.40625 35.40625 
Q 44.1875 33.984375 37.640625 27.21875 
Q 31.109375 20.453125 19.1875 8.296875 
" id="BitstreamVeraSans-Roman-32"/>
      </defs>
      <g transform="translate(214.125 531.518125)scale(0.12 -0.12)">
       <use xlink:href="#BitstreamVeraSans-Roman-32"/>
       <use x="63.623046875" xlink:href="#BitstreamVeraSans-Roman-30"/>
      </g>
     </g>
    </g>
    <g id="xtick_3">
     <g id="line2d_9">
      <g>
       <use style="stroke:#000000;stroke-width:0.5;" x="344.52" xlink:href="#m9935cdee0d" y="518.4"/>
      </g>
     </g>
     <g id="line2d_10">
      <g>
       <use style="stroke:#000000;stroke-width:0.5;" x="344.52" xlink:href="#m846710b9a7" y="57.6"/>
      </g>
     </g>
     <g id="text_3">
      <!-- 40 -->
      <defs>
       <path d="M 37.796875 64.3125 
L 12.890625 25.390625 
L 37.796875 25.390625 
z
M 35.203125 72.90625 
L 47.609375 72.90625 
L 47.609375 25.390625 
L 58.015625 25.390625 
L 58.015625 17.1875 
L 47.609375 17.1875 
L 47.609375 0 
L 37.796875 0 
L 37.796875 17.1875 
L 4.890625 17.1875 
L 4.890625 26.703125 
z
" id="BitstreamVeraSans-Roman-34"/>
      </defs>
      <g transform="translate(336.885 531.518125)scale(0.12 -0.12)">
       <use xlink:href="#BitstreamVeraSans-Roman-34"/>
       <use x="63.623046875" xlink:href="#BitstreamVeraSans-Roman-30"/>
      </g>
     </g>
    </g>
    <g id="xtick_4">
     <g id="line2d_11">
      <g>
       <use style="stroke:#000000;stroke-width:0.5;" x="467.28" xlink:href="#m9935cdee0d" y="518.4"/>
      </g>
     </g>
     <g id="line2d_12">
      <g>
       <use style="stroke:#000000;stroke-width:0.5;" x="467.28" xlink:href="#m846710b9a7" y="57.6"/>
      </g>
     </g>
     <g id="text_4">
      <!-- 60 -->
      <defs>
       <path d="M 33.015625 40.375 
Q 26.375 40.375 22.484375 35.828125 
Q 18.609375 31.296875 18.609375 23.390625 
Q 18.609375 15.53125 22.484375 10.953125 
Q 26.375 6.390625 33.015625 6.390625 
Q 39.65625 6.390625 43.53125 10.953125 
Q 47.40625 15.53125 47.40625 23.390625 
Q 47.40625 31.296875 43.53125 35.828125 
Q 39.65625 40.375 33.015625 40.375 
M 52.59375 71.296875 
L 52.59375 62.3125 
Q 48.875 64.0625 45.09375 64.984375 
Q 41.3125 65.921875 37.59375 65.921875 
Q 27.828125 65.921875 22.671875 59.328125 
Q 17.53125 52.734375 16.796875 39.40625 
Q 19.671875 43.65625 24.015625 45.921875 
Q 28.375 48.1875 33.59375 48.1875 
Q 44.578125 48.1875 50.953125 41.515625 
Q 57.328125 34.859375 57.328125 23.390625 
Q 57.328125 12.15625 50.6875 5.359375 
Q 44.046875 -1.421875 33.015625 -1.421875 
Q 20.359375 -1.421875 13.671875 8.265625 
Q 6.984375 17.96875 6.984375 36.375 
Q 6.984375 53.65625 15.1875 63.9375 
Q 23.390625 74.21875 37.203125 74.21875 
Q 40.921875 74.21875 44.703125 73.484375 
Q 48.484375 72.75 52.59375 71.296875 
" id="BitstreamVeraSans-Roman-36"/>
      </defs>
      <g transform="translate(459.645 531.518125)scale(0.12 -0.12)">
       <use xlink:href="#BitstreamVeraSans-Roman-36"/>
       <use x="63.623046875" xlink:href="#BitstreamVeraSans-Roman-30"/>
      </g>
     </g>
    </g>
    <g id="xtick_5">
     <g id="line2d_13">
      <g>
       <use style="stroke:#000000;stroke-width:0.5;" x="590.04" xlink:href="#m9935cdee0d" y="518.4"/>
      </g>
     </g>
     <g id="line2d_14">
      <g>
       <use style="stroke:#000000;stroke-width:0.5;" x="590.04" xlink:href="#m846710b9a7" y="57.6"/>
      </g>
     </g>
     <g id="text_5">
      <!-- 80 -->
      <defs>
       <path d="M 31.78125 34.625 
Q 24.75 34.625 20.71875 30.859375 
Q 16.703125 27.09375 16.703125 20.515625 
Q 16.703125 13.921875 20.71875 10.15625 
Q 24.75 6.390625 31.78125 6.390625 
Q 38.8125 6.390625 42.859375 10.171875 
Q 46.921875 13.96875 46.921875 20.515625 
Q 46.921875 27.09375 42.890625 30.859375 
Q 38.875 34.625 31.78125 34.625 
M 21.921875 38.8125 
Q 15.578125 40.375 12.03125 44.71875 
Q 8.5 49.078125 8.5 55.328125 
Q 8.5 64.0625 14.71875 69.140625 
Q 20.953125 74.21875 31.78125 74.21875 
Q 42.671875 74.21875 48.875 69.140625 
Q 55.078125 64.0625 55.078125 55.328125 
Q 55.078125 49.078125 51.53125 44.71875 
Q 48 40.375 41.703125 38.8125 
Q 48.828125 37.15625 52.796875 32.3125 
Q 56.78125 27.484375 56.78125 20.515625 
Q 56.78125 9.90625 50.3125 4.234375 
Q 43.84375 -1.421875 31.78125 -1.421875 
Q 19.734375 -1.421875 13.25 4.234375 
Q 6.78125 9.90625 6.78125 20.515625 
Q 6.78125 27.484375 10.78125 32.3125 
Q 14.796875 37.15625 21.921875 38.8125 
M 18.3125 54.390625 
Q 18.3125 48.734375 21.84375 45.5625 
Q 25.390625 42.390625 31.78125 42.390625 
Q 38.140625 42.390625 41.71875 45.5625 
Q 45.3125 48.734375 45.3125 54.390625 
Q 45.3125 60.0625 41.71875 63.234375 
Q 38.140625 66.40625 31.78125 66.40625 
Q 25.390625 66.40625 21.84375 63.234375 
Q 18.3125 60.0625 18.3125 54.390625 
" id="BitstreamVeraSans-Roman-38"/>
      </defs>
      <g transform="translate(582.405 531.518125)scale(0.12 -0.12)">
       <use xlink:href="#BitstreamVeraSans-Roman-38"/>
       <use x="63.623046875" xlink:href="#BitstreamVeraSans-Roman-30"/>
      </g>
     </g>
    </g>
    <g id="xtick_6">
     <g id="line2d_15">
      <g>
       <use style="stroke:#000000;stroke-width:0.5;" x="712.8" xlink:href="#m9935cdee0d" y="518.4"/>
      </g>
     </g>
     <g id="line2d_16">
      <g>
       <use style="stroke:#000000;stroke-width:0.5;" x="712.8" xlink:href="#m846710b9a7" y="57.6"/>
      </g>
     </g>
     <g id="text_6">
      <!-- 100 -->
      <defs>
       <path d="M 12.40625 8.296875 
L 28.515625 8.296875 
L 28.515625 63.921875 
L 10.984375 60.40625 
L 10.984375 69.390625 
L 28.421875 72.90625 
L 38.28125 72.90625 
L 38.28125 8.296875 
L 54.390625 8.296875 
L 54.390625 0 
L 12.40625 0 
z
" id="BitstreamVeraSans-Roman-31"/>
      </defs>
      <g transform="translate(701.3475 531.518125)scale(0.12 -0.12)">
       <use xlink:href="#BitstreamVeraSans-Roman-31"/>
       <use x="63.623046875" xlink:href="#BitstreamVeraSans-Roman-30"/>
       <use x="127.24609375" xlink:href="#BitstreamVeraSans-Roman-30"/>
      </g>
     </g>
    </g>
    <g id="text_7">
     <!-- PCA dimensions -->
     <defs>
      <path id="BitstreamVeraSans-Roman-20"/>
      <path d="M 54.890625 33.015625 
L 54.890625 0 
L 45.90625 0 
L 45.90625 32.71875 
Q 45.90625 40.484375 42.875 44.328125 
Q 39.84375 48.1875 33.796875 48.1875 
Q 26.515625 48.1875 22.3125 43.546875 
Q 18.109375 38.921875 18.109375 30.90625 
L 18.109375 0 
L 9.078125 0 
L 9.078125 54.6875 
L 18.109375 54.6875 
L 18.109375 46.1875 
Q 21.34375 51.125 25.703125 53.5625 
Q 30.078125 56 35.796875 56 
Q 45.21875 56 50.046875 50.171875 
Q 54.890625 44.34375 54.890625 33.015625 
" id="BitstreamVeraSans-Roman-6e"/>
      <path d="M 52 44.1875 
Q 55.375 50.25 60.0625 53.125 
Q 64.75 56 71.09375 56 
Q 79.640625 56 84.28125 50.015625 
Q 88.921875 44.046875 88.921875 33.015625 
L 88.921875 0 
L 79.890625 0 
L 79.890625 32.71875 
Q 79.890625 40.578125 77.09375 44.375 
Q 74.3125 48.1875 68.609375 48.1875 
Q 61.625 48.1875 57.5625 43.546875 
Q 53.515625 38.921875 53.515625 30.90625 
L 53.515625 0 
L 44.484375 0 
L 44.484375 32.71875 
Q 44.484375 40.625 41.703125 44.40625 
Q 38.921875 48.1875 33.109375 48.1875 
Q 26.21875 48.1875 22.15625 43.53125 
Q 18.109375 38.875 18.109375 30.90625 
L 18.109375 0 
L 9.078125 0 
L 9.078125 54.6875 
L 18.109375 54.6875 
L 18.109375 46.1875 
Q 21.1875 51.21875 25.484375 53.609375 
Q 29.78125 56 35.6875 56 
Q 41.65625 56 45.828125 52.96875 
Q 50 49.953125 52 44.1875 
" id="BitstreamVeraSans-Roman-6d"/>
      <path d="M 30.609375 48.390625 
Q 23.390625 48.390625 19.1875 42.75 
Q 14.984375 37.109375 14.984375 27.296875 
Q 14.984375 17.484375 19.15625 11.84375 
Q 23.34375 6.203125 30.609375 6.203125 
Q 37.796875 6.203125 41.984375 11.859375 
Q 46.1875 17.53125 46.1875 27.296875 
Q 46.1875 37.015625 41.984375 42.703125 
Q 37.796875 48.390625 30.609375 48.390625 
M 30.609375 56 
Q 42.328125 56 49.015625 48.375 
Q 55.71875 40.765625 55.71875 27.296875 
Q 55.71875 13.875 49.015625 6.21875 
Q 42.328125 -1.421875 30.609375 -1.421875 
Q 18.84375 -1.421875 12.171875 6.21875 
Q 5.515625 13.875 5.515625 27.296875 
Q 5.515625 40.765625 12.171875 48.375 
Q 18.84375 56 30.609375 56 
" id="BitstreamVeraSans-Roman-6f"/>
      <path d="M 19.671875 64.796875 
L 19.671875 37.40625 
L 32.078125 37.40625 
Q 38.96875 37.40625 42.71875 40.96875 
Q 46.484375 44.53125 46.484375 51.125 
Q 46.484375 57.671875 42.71875 61.234375 
Q 38.96875 64.796875 32.078125 64.796875 
z
M 9.8125 72.90625 
L 32.078125 72.90625 
Q 44.34375 72.90625 50.609375 67.359375 
Q 56.890625 61.8125 56.890625 51.125 
Q 56.890625 40.328125 50.609375 34.8125 
Q 44.34375 29.296875 32.078125 29.296875 
L 19.671875 29.296875 
L 19.671875 0 
L 9.8125 0 
z
" id="BitstreamVeraSans-Roman-50"/>
      <path d="M 9.421875 54.6875 
L 18.40625 54.6875 
L 18.40625 0 
L 9.421875 0 
z
M 9.421875 75.984375 
L 18.40625 75.984375 
L 18.40625 64.59375 
L 9.421875 64.59375 
z
" id="BitstreamVeraSans-Roman-69"/>
      <path d="M 34.1875 63.1875 
L 20.796875 26.90625 
L 47.609375 26.90625 
z
M 28.609375 72.90625 
L 39.796875 72.90625 
L 67.578125 0 
L 57.328125 0 
L 50.6875 18.703125 
L 17.828125 18.703125 
L 11.1875 0 
L 0.78125 0 
z
" id="BitstreamVeraSans-Roman-41"/>
      <path d="M 45.40625 46.390625 
L 45.40625 75.984375 
L 54.390625 75.984375 
L 54.390625 0 
L 45.40625 0 
L 45.40625 8.203125 
Q 42.578125 3.328125 38.25 0.953125 
Q 33.9375 -1.421875 27.875 -1.421875 
Q 17.96875 -1.421875 11.734375 6.484375 
Q 5.515625 14.40625 5.515625 27.296875 
Q 5.515625 40.1875 11.734375 48.09375 
Q 17.96875 56 27.875 56 
Q 33.9375 56 38.25 53.625 
Q 42.578125 51.265625 45.40625 46.390625 
M 14.796875 27.296875 
Q 14.796875 17.390625 18.875 11.75 
Q 22.953125 6.109375 30.078125 6.109375 
Q 37.203125 6.109375 41.296875 11.75 
Q 45.40625 17.390625 45.40625 27.296875 
Q 45.40625 37.203125 41.296875 42.84375 
Q 37.203125 48.484375 30.078125 48.484375 
Q 22.953125 48.484375 18.875 42.84375 
Q 14.796875 37.203125 14.796875 27.296875 
" id="BitstreamVeraSans-Roman-64"/>
      <path d="M 56.203125 29.59375 
L 56.203125 25.203125 
L 14.890625 25.203125 
Q 15.484375 15.921875 20.484375 11.0625 
Q 25.484375 6.203125 34.421875 6.203125 
Q 39.59375 6.203125 44.453125 7.46875 
Q 49.3125 8.734375 54.109375 11.28125 
L 54.109375 2.78125 
Q 49.265625 0.734375 44.1875 -0.34375 
Q 39.109375 -1.421875 33.890625 -1.421875 
Q 20.796875 -1.421875 13.15625 6.1875 
Q 5.515625 13.8125 5.515625 26.8125 
Q 5.515625 40.234375 12.765625 48.109375 
Q 20.015625 56 32.328125 56 
Q 43.359375 56 49.78125 48.890625 
Q 56.203125 41.796875 56.203125 29.59375 
M 47.21875 32.234375 
Q 47.125 39.59375 43.09375 43.984375 
Q 39.0625 48.390625 32.421875 48.390625 
Q 24.90625 48.390625 20.390625 44.140625 
Q 15.875 39.890625 15.1875 32.171875 
z
" id="BitstreamVeraSans-Roman-65"/>
      <path d="M 64.40625 67.28125 
L 64.40625 56.890625 
Q 59.421875 61.53125 53.78125 63.8125 
Q 48.140625 66.109375 41.796875 66.109375 
Q 29.296875 66.109375 22.65625 58.46875 
Q 16.015625 50.828125 16.015625 36.375 
Q 16.015625 21.96875 22.65625 14.328125 
Q 29.296875 6.6875 41.796875 6.6875 
Q 48.140625 6.6875 53.78125 8.984375 
Q 59.421875 11.28125 64.40625 15.921875 
L 64.40625 5.609375 
Q 59.234375 2.09375 53.4375 0.328125 
Q 47.65625 -1.421875 41.21875 -1.421875 
Q 24.65625 -1.421875 15.125 8.703125 
Q 5.609375 18.84375 5.609375 36.375 
Q 5.609375 53.953125 15.125 64.078125 
Q 24.65625 74.21875 41.21875 74.21875 
Q 47.75 74.21875 53.53125 72.484375 
Q 59.328125 70.75 64.40625 67.28125 
" id="BitstreamVeraSans-Roman-43"/>
      <path d="M 44.28125 53.078125 
L 44.28125 44.578125 
Q 40.484375 46.53125 36.375 47.5 
Q 32.28125 48.484375 27.875 48.484375 
Q 21.1875 48.484375 17.84375 46.4375 
Q 14.5 44.390625 14.5 40.28125 
Q 14.5 37.15625 16.890625 35.375 
Q 19.28125 33.59375 26.515625 31.984375 
L 29.59375 31.296875 
Q 39.15625 29.25 43.1875 25.515625 
Q 47.21875 21.78125 47.21875 15.09375 
Q 47.21875 7.46875 41.1875 3.015625 
Q 35.15625 -1.421875 24.609375 -1.421875 
Q 20.21875 -1.421875 15.453125 -0.5625 
Q 10.6875 0.296875 5.421875 2 
L 5.421875 11.28125 
Q 10.40625 8.6875 15.234375 7.390625 
Q 20.0625 6.109375 24.8125 6.109375 
Q 31.15625 6.109375 34.5625 8.28125 
Q 37.984375 10.453125 37.984375 14.40625 
Q 37.984375 18.0625 35.515625 20.015625 
Q 33.0625 21.96875 24.703125 23.78125 
L 21.578125 24.515625 
Q 13.234375 26.265625 9.515625 29.90625 
Q 5.8125 33.546875 5.8125 39.890625 
Q 5.8125 47.609375 11.28125 51.796875 
Q 16.75 56 26.8125 56 
Q 31.78125 56 36.171875 55.265625 
Q 40.578125 54.546875 44.28125 53.078125 
" id="BitstreamVeraSans-Roman-73"/>
     </defs>
     <g transform="translate(357.8746875 548.131875)scale(0.12 -0.12)">
      <use xlink:href="#BitstreamVeraSans-Roman-50"/>
      <use x="60.302734375" xlink:href="#BitstreamVeraSans-Roman-43"/>
      <use x="130.126953125" xlink:href="#BitstreamVeraSans-Roman-41"/>
      <use x="198.53515625" xlink:href="#BitstreamVeraSans-Roman-20"/>
      <use x="230.322265625" xlink:href="#BitstreamVeraSans-Roman-64"/>
      <use x="293.798828125" xlink:href="#BitstreamVeraSans-Roman-69"/>
      <use x="321.58203125" xlink:href="#BitstreamVeraSans-Roman-6d"/>
      <use x="418.994140625" xlink:href="#BitstreamVeraSans-Roman-65"/>
      <use x="480.517578125" xlink:href="#BitstreamVeraSans-Roman-6e"/>
      <use x="543.896484375" xlink:href="#BitstreamVeraSans-Roman-73"/>
      <use x="595.99609375" xlink:href="#BitstreamVeraSans-Roman-69"/>
      <use x="623.779296875" xlink:href="#BitstreamVeraSans-Roman-6f"/>
      <use x="684.9609375" xlink:href="#BitstreamVeraSans-Roman-6e"/>
      <use x="748.33984375" xlink:href="#BitstreamVeraSans-Roman-73"/>
     </g>
    </g>
   </g>
   <g id="matplotlib.axis_2">
    <g id="ytick_1">
     <g id="line2d_17">
      <defs>
       <path d="M 0 0 
L 4 0 
" id="m8de2389bc9" style="stroke:#000000;stroke-width:0.5;"/>
      </defs>
      <g>
       <use style="stroke:#000000;stroke-width:0.5;" x="99.0" xlink:href="#m8de2389bc9" y="518.4"/>
      </g>
     </g>
     <g id="line2d_18">
      <defs>
       <path d="M 0 0 
L -4 0 
" id="m9eab37f861" style="stroke:#000000;stroke-width:0.5;"/>
      </defs>
      <g>
       <use style="stroke:#000000;stroke-width:0.5;" x="712.8" xlink:href="#m9eab37f861" y="518.4"/>
      </g>
     </g>
     <g id="text_8">
      <!-- 0.5 -->
      <defs>
       <path d="M 10.6875 12.40625 
L 21 12.40625 
L 21 0 
L 10.6875 0 
z
" id="BitstreamVeraSans-Roman-2e"/>
       <path d="M 10.796875 72.90625 
L 49.515625 72.90625 
L 49.515625 64.59375 
L 19.828125 64.59375 
L 19.828125 46.734375 
Q 21.96875 47.46875 24.109375 47.828125 
Q 26.265625 48.1875 28.421875 48.1875 
Q 40.625 48.1875 47.75 41.5 
Q 54.890625 34.8125 54.890625 23.390625 
Q 54.890625 11.625 47.5625 5.09375 
Q 40.234375 -1.421875 26.90625 -1.421875 
Q 22.3125 -1.421875 17.546875 -0.640625 
Q 12.796875 0.140625 7.71875 1.703125 
L 7.71875 11.625 
Q 12.109375 9.234375 16.796875 8.0625 
Q 21.484375 6.890625 26.703125 6.890625 
Q 35.15625 6.890625 40.078125 11.328125 
Q 45.015625 15.765625 45.015625 23.390625 
Q 45.015625 31 40.078125 35.4375 
Q 35.15625 39.890625 26.703125 39.890625 
Q 22.75 39.890625 18.8125 39.015625 
Q 14.890625 38.140625 10.796875 36.28125 
z
" id="BitstreamVeraSans-Roman-35"/>
      </defs>
      <g transform="translate(75.91625 521.71125)scale(0.12 -0.12)">
       <use xlink:href="#BitstreamVeraSans-Roman-30"/>
       <use x="63.623046875" xlink:href="#BitstreamVeraSans-Roman-2e"/>
       <use x="95.41015625" xlink:href="#BitstreamVeraSans-Roman-35"/>
      </g>
     </g>
    </g>
    <g id="ytick_2">
     <g id="line2d_19">
      <g>
       <use style="stroke:#000000;stroke-width:0.5;" x="99.0" xlink:href="#m8de2389bc9" y="441.6"/>
      </g>
     </g>
     <g id="line2d_20">
      <g>
       <use style="stroke:#000000;stroke-width:0.5;" x="712.8" xlink:href="#m9eab37f861" y="441.6"/>
      </g>
     </g>
     <g id="text_9">
      <!-- 0.6 -->
      <g transform="translate(75.91625 444.91125)scale(0.12 -0.12)">
       <use xlink:href="#BitstreamVeraSans-Roman-30"/>
       <use x="63.623046875" xlink:href="#BitstreamVeraSans-Roman-2e"/>
       <use x="95.41015625" xlink:href="#BitstreamVeraSans-Roman-36"/>
      </g>
     </g>
    </g>
    <g id="ytick_3">
     <g id="line2d_21">
      <g>
       <use style="stroke:#000000;stroke-width:0.5;" x="99.0" xlink:href="#m8de2389bc9" y="364.8"/>
      </g>
     </g>
     <g id="line2d_22">
      <g>
       <use style="stroke:#000000;stroke-width:0.5;" x="712.8" xlink:href="#m9eab37f861" y="364.8"/>
      </g>
     </g>
     <g id="text_10">
      <!-- 0.7 -->
      <defs>
       <path d="M 8.203125 72.90625 
L 55.078125 72.90625 
L 55.078125 68.703125 
L 28.609375 0 
L 18.3125 0 
L 43.21875 64.59375 
L 8.203125 64.59375 
z
" id="BitstreamVeraSans-Roman-37"/>
      </defs>
      <g transform="translate(75.91625 368.11125)scale(0.12 -0.12)">
       <use xlink:href="#BitstreamVeraSans-Roman-30"/>
       <use x="63.623046875" xlink:href="#BitstreamVeraSans-Roman-2e"/>
       <use x="95.41015625" xlink:href="#BitstreamVeraSans-Roman-37"/>
      </g>
     </g>
    </g>
    <g id="ytick_4">
     <g id="line2d_23">
      <g>
       <use style="stroke:#000000;stroke-width:0.5;" x="99.0" xlink:href="#m8de2389bc9" y="288.0"/>
      </g>
     </g>
     <g id="line2d_24">
      <g>
       <use style="stroke:#000000;stroke-width:0.5;" x="712.8" xlink:href="#m9eab37f861" y="288.0"/>
      </g>
     </g>
     <g id="text_11">
      <!-- 0.8 -->
      <g transform="translate(75.91625 291.31125)scale(0.12 -0.12)">
       <use xlink:href="#BitstreamVeraSans-Roman-30"/>
       <use x="63.623046875" xlink:href="#BitstreamVeraSans-Roman-2e"/>
       <use x="95.41015625" xlink:href="#BitstreamVeraSans-Roman-38"/>
      </g>
     </g>
    </g>
    <g id="ytick_5">
     <g id="line2d_25">
      <g>
       <use style="stroke:#000000;stroke-width:0.5;" x="99.0" xlink:href="#m8de2389bc9" y="211.2"/>
      </g>
     </g>
     <g id="line2d_26">
      <g>
       <use style="stroke:#000000;stroke-width:0.5;" x="712.8" xlink:href="#m9eab37f861" y="211.2"/>
      </g>
     </g>
     <g id="text_12">
      <!-- 0.9 -->
      <defs>
       <path d="M 10.984375 1.515625 
L 10.984375 10.5 
Q 14.703125 8.734375 18.5 7.8125 
Q 22.3125 6.890625 25.984375 6.890625 
Q 35.75 6.890625 40.890625 13.453125 
Q 46.046875 20.015625 46.78125 33.40625 
Q 43.953125 29.203125 39.59375 26.953125 
Q 35.25 24.703125 29.984375 24.703125 
Q 19.046875 24.703125 12.671875 31.3125 
Q 6.296875 37.9375 6.296875 49.421875 
Q 6.296875 60.640625 12.9375 67.421875 
Q 19.578125 74.21875 30.609375 74.21875 
Q 43.265625 74.21875 49.921875 64.515625 
Q 56.59375 54.828125 56.59375 36.375 
Q 56.59375 19.140625 48.40625 8.859375 
Q 40.234375 -1.421875 26.421875 -1.421875 
Q 22.703125 -1.421875 18.890625 -0.6875 
Q 15.09375 0.046875 10.984375 1.515625 
M 30.609375 32.421875 
Q 37.25 32.421875 41.125 36.953125 
Q 45.015625 41.5 45.015625 49.421875 
Q 45.015625 57.28125 41.125 61.84375 
Q 37.25 66.40625 30.609375 66.40625 
Q 23.96875 66.40625 20.09375 61.84375 
Q 16.21875 57.28125 16.21875 49.421875 
Q 16.21875 41.5 20.09375 36.953125 
Q 23.96875 32.421875 30.609375 32.421875 
" id="BitstreamVeraSans-Roman-39"/>
      </defs>
      <g transform="translate(75.91625 214.51125)scale(0.12 -0.12)">
       <use xlink:href="#BitstreamVeraSans-Roman-30"/>
       <use x="63.623046875" xlink:href="#BitstreamVeraSans-Roman-2e"/>
       <use x="95.41015625" xlink:href="#BitstreamVeraSans-Roman-39"/>
      </g>
     </g>
    </g>
    <g id="ytick_6">
     <g id="line2d_27">
      <g>
       <use style="stroke:#000000;stroke-width:0.5;" x="99.0" xlink:href="#m8de2389bc9" y="134.4"/>
      </g>
     </g>
     <g id="line2d_28">
      <g>
       <use style="stroke:#000000;stroke-width:0.5;" x="712.8" xlink:href="#m9eab37f861" y="134.4"/>
      </g>
     </g>
     <g id="text_13">
      <!-- 1.0 -->
      <g transform="translate(75.91625 137.71125)scale(0.12 -0.12)">
       <use xlink:href="#BitstreamVeraSans-Roman-31"/>
       <use x="63.623046875" xlink:href="#BitstreamVeraSans-Roman-2e"/>
       <use x="95.41015625" xlink:href="#BitstreamVeraSans-Roman-30"/>
      </g>
     </g>
    </g>
    <g id="ytick_7">
     <g id="line2d_29">
      <g>
       <use style="stroke:#000000;stroke-width:0.5;" x="99.0" xlink:href="#m8de2389bc9" y="57.6"/>
      </g>
     </g>
     <g id="line2d_30">
      <g>
       <use style="stroke:#000000;stroke-width:0.5;" x="712.8" xlink:href="#m9eab37f861" y="57.6"/>
      </g>
     </g>
     <g id="text_14">
      <!-- 1.1 -->
      <g transform="translate(75.91625 60.91125)scale(0.12 -0.12)">
       <use xlink:href="#BitstreamVeraSans-Roman-31"/>
       <use x="63.623046875" xlink:href="#BitstreamVeraSans-Roman-2e"/>
       <use x="95.41015625" xlink:href="#BitstreamVeraSans-Roman-31"/>
      </g>
     </g>
    </g>
    <g id="text_15">
     <!-- Accuracy vs execution time -->
     <defs>
      <path d="M 41.109375 46.296875 
Q 39.59375 47.171875 37.8125 47.578125 
Q 36.03125 48 33.890625 48 
Q 26.265625 48 22.1875 43.046875 
Q 18.109375 38.09375 18.109375 28.8125 
L 18.109375 0 
L 9.078125 0 
L 9.078125 54.6875 
L 18.109375 54.6875 
L 18.109375 46.1875 
Q 20.953125 51.171875 25.484375 53.578125 
Q 30.03125 56 36.53125 56 
Q 37.453125 56 38.578125 55.875 
Q 39.703125 55.765625 41.0625 55.515625 
z
" id="BitstreamVeraSans-Roman-72"/>
      <path d="M 54.890625 54.6875 
L 35.109375 28.078125 
L 55.90625 0 
L 45.3125 0 
L 29.390625 21.484375 
L 13.484375 0 
L 2.875 0 
L 24.125 28.609375 
L 4.6875 54.6875 
L 15.28125 54.6875 
L 29.78125 35.203125 
L 44.28125 54.6875 
z
" id="BitstreamVeraSans-Roman-78"/>
      <path d="M 32.171875 -5.078125 
Q 28.375 -14.84375 24.75 -17.8125 
Q 21.140625 -20.796875 15.09375 -20.796875 
L 7.90625 -20.796875 
L 7.90625 -13.28125 
L 13.1875 -13.28125 
Q 16.890625 -13.28125 18.9375 -11.515625 
Q 21 -9.765625 23.484375 -3.21875 
L 25.09375 0.875 
L 2.984375 54.6875 
L 12.5 54.6875 
L 29.59375 11.921875 
L 46.6875 54.6875 
L 56.203125 54.6875 
z
" id="BitstreamVeraSans-Roman-79"/>
      <path d="M 2.984375 54.6875 
L 12.5 54.6875 
L 29.59375 8.796875 
L 46.6875 54.6875 
L 56.203125 54.6875 
L 35.6875 0 
L 23.484375 0 
z
" id="BitstreamVeraSans-Roman-76"/>
      <path d="M 18.3125 70.21875 
L 18.3125 54.6875 
L 36.8125 54.6875 
L 36.8125 47.703125 
L 18.3125 47.703125 
L 18.3125 18.015625 
Q 18.3125 11.328125 20.140625 9.421875 
Q 21.96875 7.515625 27.59375 7.515625 
L 36.8125 7.515625 
L 36.8125 0 
L 27.59375 0 
Q 17.1875 0 13.234375 3.875 
Q 9.28125 7.765625 9.28125 18.015625 
L 9.28125 47.703125 
L 2.6875 47.703125 
L 2.6875 54.6875 
L 9.28125 54.6875 
L 9.28125 70.21875 
z
" id="BitstreamVeraSans-Roman-74"/>
      <path d="M 8.5 21.578125 
L 8.5 54.6875 
L 17.484375 54.6875 
L 17.484375 21.921875 
Q 17.484375 14.15625 20.5 10.265625 
Q 23.53125 6.390625 29.59375 6.390625 
Q 36.859375 6.390625 41.078125 11.03125 
Q 45.3125 15.671875 45.3125 23.6875 
L 45.3125 54.6875 
L 54.296875 54.6875 
L 54.296875 0 
L 45.3125 0 
L 45.3125 8.40625 
Q 42.046875 3.421875 37.71875 1 
Q 33.40625 -1.421875 27.6875 -1.421875 
Q 18.265625 -1.421875 13.375 4.4375 
Q 8.5 10.296875 8.5 21.578125 
" id="BitstreamVeraSans-Roman-75"/>
      <path d="M 34.28125 27.484375 
Q 23.390625 27.484375 19.1875 25 
Q 14.984375 22.515625 14.984375 16.5 
Q 14.984375 11.71875 18.140625 8.90625 
Q 21.296875 6.109375 26.703125 6.109375 
Q 34.1875 6.109375 38.703125 11.40625 
Q 43.21875 16.703125 43.21875 25.484375 
L 43.21875 27.484375 
z
M 52.203125 31.203125 
L 52.203125 0 
L 43.21875 0 
L 43.21875 8.296875 
Q 40.140625 3.328125 35.546875 0.953125 
Q 30.953125 -1.421875 24.3125 -1.421875 
Q 15.921875 -1.421875 10.953125 3.296875 
Q 6 8.015625 6 15.921875 
Q 6 25.140625 12.171875 29.828125 
Q 18.359375 34.515625 30.609375 34.515625 
L 43.21875 34.515625 
L 43.21875 35.40625 
Q 43.21875 41.609375 39.140625 45 
Q 35.0625 48.390625 27.6875 48.390625 
Q 23 48.390625 18.546875 47.265625 
Q 14.109375 46.140625 10.015625 43.890625 
L 10.015625 52.203125 
Q 14.9375 54.109375 19.578125 55.046875 
Q 24.21875 56 28.609375 56 
Q 40.484375 56 46.34375 49.84375 
Q 52.203125 43.703125 52.203125 31.203125 
" id="BitstreamVeraSans-Roman-61"/>
      <path d="M 48.78125 52.59375 
L 48.78125 44.1875 
Q 44.96875 46.296875 41.140625 47.34375 
Q 37.3125 48.390625 33.40625 48.390625 
Q 24.65625 48.390625 19.8125 42.84375 
Q 14.984375 37.3125 14.984375 27.296875 
Q 14.984375 17.28125 19.8125 11.734375 
Q 24.65625 6.203125 33.40625 6.203125 
Q 37.3125 6.203125 41.140625 7.25 
Q 44.96875 8.296875 48.78125 10.40625 
L 48.78125 2.09375 
Q 45.015625 0.34375 40.984375 -0.53125 
Q 36.96875 -1.421875 32.421875 -1.421875 
Q 20.0625 -1.421875 12.78125 6.34375 
Q 5.515625 14.109375 5.515625 27.296875 
Q 5.515625 40.671875 12.859375 48.328125 
Q 20.21875 56 33.015625 56 
Q 37.15625 56 41.109375 55.140625 
Q 45.0625 54.296875 48.78125 52.59375 
" id="BitstreamVeraSans-Roman-63"/>
     </defs>
     <g transform="translate(68.420625 370.97625)rotate(-90.0)scale(0.12 -0.12)">
      <use xlink:href="#BitstreamVeraSans-Roman-41"/>
      <use x="68.392578125" xlink:href="#BitstreamVeraSans-Roman-63"/>
      <use x="123.373046875" xlink:href="#BitstreamVeraSans-Roman-63"/>
      <use x="178.353515625" xlink:href="#BitstreamVeraSans-Roman-75"/>
      <use x="241.732421875" xlink:href="#BitstreamVeraSans-Roman-72"/>
      <use x="282.845703125" xlink:href="#BitstreamVeraSans-Roman-61"/>
      <use x="344.125" xlink:href="#BitstreamVeraSans-Roman-63"/>
      <use x="399.10546875" xlink:href="#BitstreamVeraSans-Roman-79"/>
      <use x="458.28515625" xlink:href="#BitstreamVeraSans-Roman-20"/>
      <use x="490.072265625" xlink:href="#BitstreamVeraSans-Roman-76"/>
      <use x="549.251953125" xlink:href="#BitstreamVeraSans-Roman-73"/>
      <use x="601.3515625" xlink:href="#BitstreamVeraSans-Roman-20"/>
      <use x="633.138671875" xlink:href="#BitstreamVeraSans-Roman-65"/>
      <use x="694.646484375" xlink:href="#BitstreamVeraSans-Roman-78"/>
      <use x="753.779296875" xlink:href="#BitstreamVeraSans-Roman-65"/>
      <use x="815.302734375" xlink:href="#BitstreamVeraSans-Roman-63"/>
      <use x="870.283203125" xlink:href="#BitstreamVeraSans-Roman-75"/>
      <use x="933.662109375" xlink:href="#BitstreamVeraSans-Roman-74"/>
      <use x="972.87109375" xlink:href="#BitstreamVeraSans-Roman-69"/>
      <use x="1000.65429688" xlink:href="#BitstreamVeraSans-Roman-6f"/>
      <use x="1061.8359375" xlink:href="#BitstreamVeraSans-Roman-6e"/>
      <use x="1125.21484375" xlink:href="#BitstreamVeraSans-Roman-20"/>
      <use x="1157.00195312" xlink:href="#BitstreamVeraSans-Roman-74"/>
      <use x="1196.2109375" xlink:href="#BitstreamVeraSans-Roman-69"/>
      <use x="1223.99414062" xlink:href="#BitstreamVeraSans-Roman-6d"/>
      <use x="1321.40625" xlink:href="#BitstreamVeraSans-Roman-65"/>
     </g>
    </g>
   </g>
   <g id="text_16">
    <!-- How PCA dimension reduction affects model accuracy (using RandomForestAlgorithm)? -->
    <defs>
     <path d="M 8.015625 75.875 
L 15.828125 75.875 
Q 23.140625 64.359375 26.78125 53.3125 
Q 30.421875 42.28125 30.421875 31.390625 
Q 30.421875 20.453125 26.78125 9.375 
Q 23.140625 -1.703125 15.828125 -13.1875 
L 8.015625 -13.1875 
Q 14.5 -2 17.703125 9.0625 
Q 20.90625 20.125 20.90625 31.390625 
Q 20.90625 42.671875 17.703125 53.65625 
Q 14.5 64.65625 8.015625 75.875 
" id="BitstreamVeraSans-Roman-29"/>
     <path d="M 31 75.875 
Q 24.46875 64.65625 21.28125 53.65625 
Q 18.109375 42.671875 18.109375 31.390625 
Q 18.109375 20.125 21.3125 9.0625 
Q 24.515625 -2 31 -13.1875 
L 23.1875 -13.1875 
Q 15.875 -1.703125 12.234375 9.375 
Q 8.59375 20.453125 8.59375 31.390625 
Q 8.59375 42.28125 12.203125 53.3125 
Q 15.828125 64.359375 23.1875 75.875 
z
" id="BitstreamVeraSans-Roman-28"/>
     <path d="M 9.421875 75.984375 
L 18.40625 75.984375 
L 18.40625 0 
L 9.421875 0 
z
" id="BitstreamVeraSans-Roman-6c"/>
     <path d="M 9.8125 72.90625 
L 51.703125 72.90625 
L 51.703125 64.59375 
L 19.671875 64.59375 
L 19.671875 43.109375 
L 48.578125 43.109375 
L 48.578125 34.8125 
L 19.671875 34.8125 
L 19.671875 0 
L 9.8125 0 
z
" id="BitstreamVeraSans-Roman-46"/>
     <path d="M 44.390625 34.1875 
Q 47.5625 33.109375 50.5625 29.59375 
Q 53.5625 26.078125 56.59375 19.921875 
L 66.609375 0 
L 56 0 
L 46.6875 18.703125 
Q 43.0625 26.03125 39.671875 28.421875 
Q 36.28125 30.8125 30.421875 30.8125 
L 19.671875 30.8125 
L 19.671875 0 
L 9.8125 0 
L 9.8125 72.90625 
L 32.078125 72.90625 
Q 44.578125 72.90625 50.734375 67.671875 
Q 56.890625 62.453125 56.890625 51.90625 
Q 56.890625 45.015625 53.6875 40.46875 
Q 50.484375 35.9375 44.390625 34.1875 
M 19.671875 64.796875 
L 19.671875 38.921875 
L 32.078125 38.921875 
Q 39.203125 38.921875 42.84375 42.21875 
Q 46.484375 45.515625 46.484375 51.90625 
Q 46.484375 58.296875 42.84375 61.546875 
Q 39.203125 64.796875 32.078125 64.796875 
z
" id="BitstreamVeraSans-Roman-52"/>
     <path d="M 19.09375 12.40625 
L 29 12.40625 
L 29 0 
L 19.09375 0 
z
M 28.71875 19.578125 
L 19.390625 19.578125 
L 19.390625 27.09375 
Q 19.390625 32.03125 20.75 35.203125 
Q 22.125 38.375 26.515625 42.578125 
L 30.90625 46.921875 
Q 33.6875 49.515625 34.9375 51.8125 
Q 36.1875 54.109375 36.1875 56.5 
Q 36.1875 60.84375 32.984375 63.53125 
Q 29.78125 66.21875 24.515625 66.21875 
Q 20.65625 66.21875 16.28125 64.5 
Q 11.921875 62.796875 7.171875 59.515625 
L 7.171875 68.703125 
Q 11.765625 71.484375 16.46875 72.84375 
Q 21.1875 74.21875 26.21875 74.21875 
Q 35.203125 74.21875 40.640625 69.484375 
Q 46.09375 64.75 46.09375 56.984375 
Q 46.09375 53.265625 44.328125 49.921875 
Q 42.578125 46.578125 38.1875 42.390625 
L 33.890625 38.1875 
Q 31.59375 35.890625 30.640625 34.59375 
Q 29.6875 33.296875 29.296875 32.078125 
Q 29 31.0625 28.859375 29.59375 
Q 28.71875 28.125 28.71875 25.59375 
z
" id="BitstreamVeraSans-Roman-3f"/>
     <path d="M 54.890625 33.015625 
L 54.890625 0 
L 45.90625 0 
L 45.90625 32.71875 
Q 45.90625 40.484375 42.875 44.328125 
Q 39.84375 48.1875 33.796875 48.1875 
Q 26.515625 48.1875 22.3125 43.546875 
Q 18.109375 38.921875 18.109375 30.90625 
L 18.109375 0 
L 9.078125 0 
L 9.078125 75.984375 
L 18.109375 75.984375 
L 18.109375 46.1875 
Q 21.34375 51.125 25.703125 53.5625 
Q 30.078125 56 35.796875 56 
Q 45.21875 56 50.046875 50.171875 
Q 54.890625 44.34375 54.890625 33.015625 
" id="BitstreamVeraSans-Roman-68"/>
     <path d="M 4.203125 54.6875 
L 13.1875 54.6875 
L 24.421875 12.015625 
L 35.59375 54.6875 
L 46.1875 54.6875 
L 57.421875 12.015625 
L 68.609375 54.6875 
L 77.59375 54.6875 
L 63.28125 0 
L 52.6875 0 
L 40.921875 44.828125 
L 29.109375 0 
L 18.5 0 
z
" id="BitstreamVeraSans-Roman-77"/>
     <path d="M 45.40625 27.984375 
Q 45.40625 37.75 41.375 43.109375 
Q 37.359375 48.484375 30.078125 48.484375 
Q 22.859375 48.484375 18.828125 43.109375 
Q 14.796875 37.75 14.796875 27.984375 
Q 14.796875 18.265625 18.828125 12.890625 
Q 22.859375 7.515625 30.078125 7.515625 
Q 37.359375 7.515625 41.375 12.890625 
Q 45.40625 18.265625 45.40625 27.984375 
M 54.390625 6.78125 
Q 54.390625 -7.171875 48.1875 -13.984375 
Q 42 -20.796875 29.203125 -20.796875 
Q 24.46875 -20.796875 20.265625 -20.09375 
Q 16.0625 -19.390625 12.109375 -17.921875 
L 12.109375 -9.1875 
Q 16.0625 -11.328125 19.921875 -12.34375 
Q 23.78125 -13.375 27.78125 -13.375 
Q 36.625 -13.375 41.015625 -8.765625 
Q 45.40625 -4.15625 45.40625 5.171875 
L 45.40625 9.625 
Q 42.625 4.78125 38.28125 2.390625 
Q 33.9375 0 27.875 0 
Q 17.828125 0 11.671875 7.65625 
Q 5.515625 15.328125 5.515625 27.984375 
Q 5.515625 40.671875 11.671875 48.328125 
Q 17.828125 56 27.875 56 
Q 33.9375 56 38.28125 53.609375 
Q 42.625 51.21875 45.40625 46.390625 
L 45.40625 54.6875 
L 54.390625 54.6875 
z
" id="BitstreamVeraSans-Roman-67"/>
     <path d="M 37.109375 75.984375 
L 37.109375 68.5 
L 28.515625 68.5 
Q 23.6875 68.5 21.796875 66.546875 
Q 19.921875 64.59375 19.921875 59.515625 
L 19.921875 54.6875 
L 34.71875 54.6875 
L 34.71875 47.703125 
L 19.921875 47.703125 
L 19.921875 0 
L 10.890625 0 
L 10.890625 47.703125 
L 2.296875 47.703125 
L 2.296875 54.6875 
L 10.890625 54.6875 
L 10.890625 58.5 
Q 10.890625 67.625 15.140625 71.796875 
Q 19.390625 75.984375 28.609375 75.984375 
z
" id="BitstreamVeraSans-Roman-66"/>
     <path d="M 9.8125 72.90625 
L 19.671875 72.90625 
L 19.671875 43.015625 
L 55.515625 43.015625 
L 55.515625 72.90625 
L 65.375 72.90625 
L 65.375 0 
L 55.515625 0 
L 55.515625 34.71875 
L 19.671875 34.71875 
L 19.671875 0 
L 9.8125 0 
z
" id="BitstreamVeraSans-Roman-48"/>
    </defs>
    <g transform="translate(90.054 52.6)scale(0.144 -0.144)">
     <use xlink:href="#BitstreamVeraSans-Roman-48"/>
     <use x="75.1953125" xlink:href="#BitstreamVeraSans-Roman-6f"/>
     <use x="136.376953125" xlink:href="#BitstreamVeraSans-Roman-77"/>
     <use x="218.1640625" xlink:href="#BitstreamVeraSans-Roman-20"/>
     <use x="249.951171875" xlink:href="#BitstreamVeraSans-Roman-50"/>
     <use x="310.25390625" xlink:href="#BitstreamVeraSans-Roman-43"/>
     <use x="380.078125" xlink:href="#BitstreamVeraSans-Roman-41"/>
     <use x="448.486328125" xlink:href="#BitstreamVeraSans-Roman-20"/>
     <use x="480.2734375" xlink:href="#BitstreamVeraSans-Roman-64"/>
     <use x="543.75" xlink:href="#BitstreamVeraSans-Roman-69"/>
     <use x="571.533203125" xlink:href="#BitstreamVeraSans-Roman-6d"/>
     <use x="668.9453125" xlink:href="#BitstreamVeraSans-Roman-65"/>
     <use x="730.46875" xlink:href="#BitstreamVeraSans-Roman-6e"/>
     <use x="793.84765625" xlink:href="#BitstreamVeraSans-Roman-73"/>
     <use x="845.947265625" xlink:href="#BitstreamVeraSans-Roman-69"/>
     <use x="873.73046875" xlink:href="#BitstreamVeraSans-Roman-6f"/>
     <use x="934.912109375" xlink:href="#BitstreamVeraSans-Roman-6e"/>
     <use x="998.291015625" xlink:href="#BitstreamVeraSans-Roman-20"/>
     <use x="1030.078125" xlink:href="#BitstreamVeraSans-Roman-72"/>
     <use x="1071.16015625" xlink:href="#BitstreamVeraSans-Roman-65"/>
     <use x="1132.68359375" xlink:href="#BitstreamVeraSans-Roman-64"/>
     <use x="1196.16015625" xlink:href="#BitstreamVeraSans-Roman-75"/>
     <use x="1259.5390625" xlink:href="#BitstreamVeraSans-Roman-63"/>
     <use x="1314.51953125" xlink:href="#BitstreamVeraSans-Roman-74"/>
     <use x="1353.72851562" xlink:href="#BitstreamVeraSans-Roman-69"/>
     <use x="1381.51171875" xlink:href="#BitstreamVeraSans-Roman-6f"/>
     <use x="1442.69335938" xlink:href="#BitstreamVeraSans-Roman-6e"/>
     <use x="1506.07226562" xlink:href="#BitstreamVeraSans-Roman-20"/>
     <use x="1537.859375" xlink:href="#BitstreamVeraSans-Roman-61"/>
     <use x="1599.13867188" xlink:href="#BitstreamVeraSans-Roman-66"/>
     <use x="1634.34375" xlink:href="#BitstreamVeraSans-Roman-66"/>
     <use x="1669.54882812" xlink:href="#BitstreamVeraSans-Roman-65"/>
     <use x="1731.07226562" xlink:href="#BitstreamVeraSans-Roman-63"/>
     <use x="1786.05273438" xlink:href="#BitstreamVeraSans-Roman-74"/>
     <use x="1825.26171875" xlink:href="#BitstreamVeraSans-Roman-73"/>
     <use x="1877.36132812" xlink:href="#BitstreamVeraSans-Roman-20"/>
     <use x="1909.1484375" xlink:href="#BitstreamVeraSans-Roman-6d"/>
     <use x="2006.56054688" xlink:href="#BitstreamVeraSans-Roman-6f"/>
     <use x="2067.7421875" xlink:href="#BitstreamVeraSans-Roman-64"/>
     <use x="2131.21875" xlink:href="#BitstreamVeraSans-Roman-65"/>
     <use x="2192.7421875" xlink:href="#BitstreamVeraSans-Roman-6c"/>
     <use x="2220.52539062" xlink:href="#BitstreamVeraSans-Roman-20"/>
     <use x="2252.3125" xlink:href="#BitstreamVeraSans-Roman-61"/>
     <use x="2313.59179688" xlink:href="#BitstreamVeraSans-Roman-63"/>
     <use x="2368.57226562" xlink:href="#BitstreamVeraSans-Roman-63"/>
     <use x="2423.55273438" xlink:href="#BitstreamVeraSans-Roman-75"/>
     <use x="2486.93164062" xlink:href="#BitstreamVeraSans-Roman-72"/>
     <use x="2528.04492188" xlink:href="#BitstreamVeraSans-Roman-61"/>
     <use x="2589.32421875" xlink:href="#BitstreamVeraSans-Roman-63"/>
     <use x="2644.3046875" xlink:href="#BitstreamVeraSans-Roman-79"/>
     <use x="2703.484375" xlink:href="#BitstreamVeraSans-Roman-20"/>
     <use x="2735.27148438" xlink:href="#BitstreamVeraSans-Roman-28"/>
     <use x="2774.28515625" xlink:href="#BitstreamVeraSans-Roman-75"/>
     <use x="2837.6640625" xlink:href="#BitstreamVeraSans-Roman-73"/>
     <use x="2889.76367188" xlink:href="#BitstreamVeraSans-Roman-69"/>
     <use x="2917.546875" xlink:href="#BitstreamVeraSans-Roman-6e"/>
     <use x="2980.92578125" xlink:href="#BitstreamVeraSans-Roman-67"/>
     <use x="3044.40234375" xlink:href="#BitstreamVeraSans-Roman-20"/>
     <use x="3076.18945312" xlink:href="#BitstreamVeraSans-Roman-52"/>
     <use x="3145.640625" xlink:href="#BitstreamVeraSans-Roman-61"/>
     <use x="3206.91992188" xlink:href="#BitstreamVeraSans-Roman-6e"/>
     <use x="3270.29882812" xlink:href="#BitstreamVeraSans-Roman-64"/>
     <use x="3333.77539062" xlink:href="#BitstreamVeraSans-Roman-6f"/>
     <use x="3394.95703125" xlink:href="#BitstreamVeraSans-Roman-6d"/>
     <use x="3492.36914062" xlink:href="#BitstreamVeraSans-Roman-46"/>
     <use x="3549.84179688" xlink:href="#BitstreamVeraSans-Roman-6f"/>
     <use x="3611.0234375" xlink:href="#BitstreamVeraSans-Roman-72"/>
     <use x="3652.10546875" xlink:href="#BitstreamVeraSans-Roman-65"/>
     <use x="3713.62890625" xlink:href="#BitstreamVeraSans-Roman-73"/>
     <use x="3765.72851562" xlink:href="#BitstreamVeraSans-Roman-74"/>
     <use x="3804.9375" xlink:href="#BitstreamVeraSans-Roman-41"/>
     <use x="3873.34570312" xlink:href="#BitstreamVeraSans-Roman-6c"/>
     <use x="3901.12890625" xlink:href="#BitstreamVeraSans-Roman-67"/>
     <use x="3964.60546875" xlink:href="#BitstreamVeraSans-Roman-6f"/>
     <use x="4025.78710938" xlink:href="#BitstreamVeraSans-Roman-72"/>
     <use x="4066.90039062" xlink:href="#BitstreamVeraSans-Roman-69"/>
     <use x="4094.68359375" xlink:href="#BitstreamVeraSans-Roman-74"/>
     <use x="4133.89257812" xlink:href="#BitstreamVeraSans-Roman-68"/>
     <use x="4197.27148438" xlink:href="#BitstreamVeraSans-Roman-6d"/>
     <use x="4294.68359375" xlink:href="#BitstreamVeraSans-Roman-29"/>
     <use x="4333.69726562" xlink:href="#BitstreamVeraSans-Roman-3f"/>
    </g>
   </g>
   <g id="legend_1">
    <g id="patch_7">
     <path d="M 330.27975 111.393 
L 705.6 111.393 
L 705.6 64.8 
L 330.27975 64.8 
z
" style="fill:#ffffff;stroke:#000000;stroke-linejoin:miter;"/>
    </g>
    <g id="patch_8">
     <path d="M 336.03975 81.50175 
L 364.83975 81.50175 
L 364.83975 71.42175 
L 336.03975 71.42175 
z
" style="fill:#0000ff;stroke:#0000ff;stroke-linejoin:miter;"/>
    </g>
    <g id="text_17">
     <!-- Accuracy (as compared to the best) -->
     <defs>
      <path d="M 18.109375 8.203125 
L 18.109375 -20.796875 
L 9.078125 -20.796875 
L 9.078125 54.6875 
L 18.109375 54.6875 
L 18.109375 46.390625 
Q 20.953125 51.265625 25.265625 53.625 
Q 29.59375 56 35.59375 56 
Q 45.5625 56 51.78125 48.09375 
Q 58.015625 40.1875 58.015625 27.296875 
Q 58.015625 14.40625 51.78125 6.484375 
Q 45.5625 -1.421875 35.59375 -1.421875 
Q 29.59375 -1.421875 25.265625 0.953125 
Q 20.953125 3.328125 18.109375 8.203125 
M 48.6875 27.296875 
Q 48.6875 37.203125 44.609375 42.84375 
Q 40.53125 48.484375 33.40625 48.484375 
Q 26.265625 48.484375 22.1875 42.84375 
Q 18.109375 37.203125 18.109375 27.296875 
Q 18.109375 17.390625 22.1875 11.75 
Q 26.265625 6.109375 33.40625 6.109375 
Q 40.53125 6.109375 44.609375 11.75 
Q 48.6875 17.390625 48.6875 27.296875 
" id="BitstreamVeraSans-Roman-70"/>
      <path d="M 48.6875 27.296875 
Q 48.6875 37.203125 44.609375 42.84375 
Q 40.53125 48.484375 33.40625 48.484375 
Q 26.265625 48.484375 22.1875 42.84375 
Q 18.109375 37.203125 18.109375 27.296875 
Q 18.109375 17.390625 22.1875 11.75 
Q 26.265625 6.109375 33.40625 6.109375 
Q 40.53125 6.109375 44.609375 11.75 
Q 48.6875 17.390625 48.6875 27.296875 
M 18.109375 46.390625 
Q 20.953125 51.265625 25.265625 53.625 
Q 29.59375 56 35.59375 56 
Q 45.5625 56 51.78125 48.09375 
Q 58.015625 40.1875 58.015625 27.296875 
Q 58.015625 14.40625 51.78125 6.484375 
Q 45.5625 -1.421875 35.59375 -1.421875 
Q 29.59375 -1.421875 25.265625 0.953125 
Q 20.953125 3.328125 18.109375 8.203125 
L 18.109375 0 
L 9.078125 0 
L 9.078125 75.984375 
L 18.109375 75.984375 
z
" id="BitstreamVeraSans-Roman-62"/>
     </defs>
     <g transform="translate(376.35975 81.50175)scale(0.144 -0.144)">
      <use xlink:href="#BitstreamVeraSans-Roman-41"/>
      <use x="68.392578125" xlink:href="#BitstreamVeraSans-Roman-63"/>
      <use x="123.373046875" xlink:href="#BitstreamVeraSans-Roman-63"/>
      <use x="178.353515625" xlink:href="#BitstreamVeraSans-Roman-75"/>
      <use x="241.732421875" xlink:href="#BitstreamVeraSans-Roman-72"/>
      <use x="282.845703125" xlink:href="#BitstreamVeraSans-Roman-61"/>
      <use x="344.125" xlink:href="#BitstreamVeraSans-Roman-63"/>
      <use x="399.10546875" xlink:href="#BitstreamVeraSans-Roman-79"/>
      <use x="458.28515625" xlink:href="#BitstreamVeraSans-Roman-20"/>
      <use x="490.072265625" xlink:href="#BitstreamVeraSans-Roman-28"/>
      <use x="529.0859375" xlink:href="#BitstreamVeraSans-Roman-61"/>
      <use x="590.365234375" xlink:href="#BitstreamVeraSans-Roman-73"/>
      <use x="642.46484375" xlink:href="#BitstreamVeraSans-Roman-20"/>
      <use x="674.251953125" xlink:href="#BitstreamVeraSans-Roman-63"/>
      <use x="729.232421875" xlink:href="#BitstreamVeraSans-Roman-6f"/>
      <use x="790.4140625" xlink:href="#BitstreamVeraSans-Roman-6d"/>
      <use x="887.826171875" xlink:href="#BitstreamVeraSans-Roman-70"/>
      <use x="951.302734375" xlink:href="#BitstreamVeraSans-Roman-61"/>
      <use x="1012.58203125" xlink:href="#BitstreamVeraSans-Roman-72"/>
      <use x="1053.6640625" xlink:href="#BitstreamVeraSans-Roman-65"/>
      <use x="1115.1875" xlink:href="#BitstreamVeraSans-Roman-64"/>
      <use x="1178.6640625" xlink:href="#BitstreamVeraSans-Roman-20"/>
      <use x="1210.45117188" xlink:href="#BitstreamVeraSans-Roman-74"/>
      <use x="1249.66015625" xlink:href="#BitstreamVeraSans-Roman-6f"/>
      <use x="1310.84179688" xlink:href="#BitstreamVeraSans-Roman-20"/>
      <use x="1342.62890625" xlink:href="#BitstreamVeraSans-Roman-74"/>
      <use x="1381.83789062" xlink:href="#BitstreamVeraSans-Roman-68"/>
      <use x="1445.21679688" xlink:href="#BitstreamVeraSans-Roman-65"/>
      <use x="1506.74023438" xlink:href="#BitstreamVeraSans-Roman-20"/>
      <use x="1538.52734375" xlink:href="#BitstreamVeraSans-Roman-62"/>
      <use x="1602.00390625" xlink:href="#BitstreamVeraSans-Roman-65"/>
      <use x="1663.52734375" xlink:href="#BitstreamVeraSans-Roman-73"/>
      <use x="1715.62695312" xlink:href="#BitstreamVeraSans-Roman-74"/>
      <use x="1754.8359375" xlink:href="#BitstreamVeraSans-Roman-29"/>
     </g>
    </g>
    <g id="patch_9">
     <path d="M 336.03975 102.63825 
L 364.83975 102.63825 
L 364.83975 92.55825 
L 336.03975 92.55825 
z
" style="fill:#ff0000;stroke:#ff0000;stroke-linejoin:miter;"/>
    </g>
    <g id="text_18">
     <!-- Execution time (as compared to the slowest) -->
     <defs>
      <path d="M 9.8125 72.90625 
L 55.90625 72.90625 
L 55.90625 64.59375 
L 19.671875 64.59375 
L 19.671875 43.015625 
L 54.390625 43.015625 
L 54.390625 34.71875 
L 19.671875 34.71875 
L 19.671875 8.296875 
L 56.78125 8.296875 
L 56.78125 0 
L 9.8125 0 
z
" id="BitstreamVeraSans-Roman-45"/>
     </defs>
     <g transform="translate(376.35975 102.63825)scale(0.144 -0.144)">
      <use xlink:href="#BitstreamVeraSans-Roman-45"/>
      <use x="63.18359375" xlink:href="#BitstreamVeraSans-Roman-78"/>
      <use x="122.31640625" xlink:href="#BitstreamVeraSans-Roman-65"/>
      <use x="183.83984375" xlink:href="#BitstreamVeraSans-Roman-63"/>
      <use x="238.8203125" xlink:href="#BitstreamVeraSans-Roman-75"/>
      <use x="302.19921875" xlink:href="#BitstreamVeraSans-Roman-74"/>
      <use x="341.408203125" xlink:href="#BitstreamVeraSans-Roman-69"/>
      <use x="369.19140625" xlink:href="#BitstreamVeraSans-Roman-6f"/>
      <use x="430.373046875" xlink:href="#BitstreamVeraSans-Roman-6e"/>
      <use x="493.751953125" xlink:href="#BitstreamVeraSans-Roman-20"/>
      <use x="525.5390625" xlink:href="#BitstreamVeraSans-Roman-74"/>
      <use x="564.748046875" xlink:href="#BitstreamVeraSans-Roman-69"/>
      <use x="592.53125" xlink:href="#BitstreamVeraSans-Roman-6d"/>
      <use x="689.943359375" xlink:href="#BitstreamVeraSans-Roman-65"/>
      <use x="751.466796875" xlink:href="#BitstreamVeraSans-Roman-20"/>
      <use x="783.25390625" xlink:href="#BitstreamVeraSans-Roman-28"/>
      <use x="822.267578125" xlink:href="#BitstreamVeraSans-Roman-61"/>
      <use x="883.546875" xlink:href="#BitstreamVeraSans-Roman-73"/>
      <use x="935.646484375" xlink:href="#BitstreamVeraSans-Roman-20"/>
      <use x="967.43359375" xlink:href="#BitstreamVeraSans-Roman-63"/>
      <use x="1022.4140625" xlink:href="#BitstreamVeraSans-Roman-6f"/>
      <use x="1083.59570312" xlink:href="#BitstreamVeraSans-Roman-6d"/>
      <use x="1181.0078125" xlink:href="#BitstreamVeraSans-Roman-70"/>
      <use x="1244.484375" xlink:href="#BitstreamVeraSans-Roman-61"/>
      <use x="1305.76367188" xlink:href="#BitstreamVeraSans-Roman-72"/>
      <use x="1346.84570312" xlink:href="#BitstreamVeraSans-Roman-65"/>
      <use x="1408.36914062" xlink:href="#BitstreamVeraSans-Roman-64"/>
      <use x="1471.84570312" xlink:href="#BitstreamVeraSans-Roman-20"/>
      <use x="1503.6328125" xlink:href="#BitstreamVeraSans-Roman-74"/>
      <use x="1542.84179688" xlink:href="#BitstreamVeraSans-Roman-6f"/>
      <use x="1604.0234375" xlink:href="#BitstreamVeraSans-Roman-20"/>
      <use x="1635.81054688" xlink:href="#BitstreamVeraSans-Roman-74"/>
      <use x="1675.01953125" xlink:href="#BitstreamVeraSans-Roman-68"/>
      <use x="1738.3984375" xlink:href="#BitstreamVeraSans-Roman-65"/>
      <use x="1799.921875" xlink:href="#BitstreamVeraSans-Roman-20"/>
      <use x="1831.70898438" xlink:href="#BitstreamVeraSans-Roman-73"/>
      <use x="1883.80859375" xlink:href="#BitstreamVeraSans-Roman-6c"/>
      <use x="1911.59179688" xlink:href="#BitstreamVeraSans-Roman-6f"/>
      <use x="1972.7734375" xlink:href="#BitstreamVeraSans-Roman-77"/>
      <use x="2054.56054688" xlink:href="#BitstreamVeraSans-Roman-65"/>
      <use x="2116.08398438" xlink:href="#BitstreamVeraSans-Roman-73"/>
      <use x="2168.18359375" xlink:href="#BitstreamVeraSans-Roman-74"/>
      <use x="2207.39257812" xlink:href="#BitstreamVeraSans-Roman-29"/>
     </g>
    </g>
   </g>
  </g>
 </g>
 <defs>
  <clipPath id="pcb9f92c75b">
   <rect height="460.8" width="613.8" x="99.0" y="57.6"/>
  </clipPath>
 </defs>
</svg>
