<?xml version="1.0" encoding="utf-8" standalone="no"?>
<!DOCTYPE svg PUBLIC "-//W3C//DTD SVG 1.1//EN"
  "http://www.w3.org/Graphics/SVG/1.1/DTD/svg11.dtd">
<!-- Created with matplotlib (http://matplotlib.org/) -->
<svg height="576pt" version="1.1" viewBox="0 0 792 576" width="792pt" xmlns="http://www.w3.org/2000/svg" xmlns:xlink="http://www.w3.org/1999/xlink">
 <defs>
  <style type="text/css">
*{stroke-linecap:butt;stroke-linejoin:round;}
  </style>
 </defs>
 <g id="figure_1">
  <g id="patch_1">
   <path d="M 0 576 
L 792 576 
L 792 0 
L 0 0 
z
" style="fill:#ffffff;"/>
  </g>
  <g id="axes_1">
   <g id="patch_2">
    <path d="M 99 512.64 
L 712.8 512.64 
L 712.8 69.12 
L 99 69.12 
z
" style="fill:#ffffff;"/>
   </g>
   <g id="PathCollection_1">
    <defs>
     <path d="M 0 -6.123724 
L -1.374862 -1.892335 
L -5.824008 -1.892335 
L -2.224573 0.722808 
L -3.599435 4.954197 
L -0 2.339054 
L 3.599435 4.954197 
L 2.224573 0.722808 
L 5.824008 -1.892335 
L 1.374862 -1.892335 
z
" id="meea040c080" style="stroke:#000000;"/>
    </defs>
    <g clip-path="url(#p8dcb74cd4c)">
     <use style="fill:#0000ff;stroke:#000000;" x="680.706716" xlink:href="#meea040c080" y="112.151593"/>
    </g>
   </g>
   <g id="PathCollection_2">
    <defs>
     <path d="M 0 -6.123724 
L -1.374862 -1.892335 
L -5.824008 -1.892335 
L -2.224573 0.722808 
L -3.599435 4.954197 
L -0 2.339054 
L 3.599435 4.954197 
L 2.224573 0.722808 
L 5.824008 -1.892335 
L 1.374862 -1.892335 
z
" id="mf5d4a40cf2" style="stroke:#000000;"/>
    </defs>
    <g clip-path="url(#p8dcb74cd4c)">
     <use style="fill:#ff0000;stroke:#000000;" x="680.706716" xlink:href="#mf5d4a40cf2" y="351.039557"/>
    </g>
   </g>
   <g id="PathCollection_3">
    <defs>
     <path d="M 0 -6.123724 
L -1.374862 -1.892335 
L -5.824008 -1.892335 
L -2.224573 0.722808 
L -3.599435 4.954197 
L -0 2.339054 
L 3.599435 4.954197 
L 2.224573 0.722808 
L 5.824008 -1.892335 
L 1.374862 -1.892335 
z
" id="m5104aa3d83" style="stroke:#000000;"/>
    </defs>
    <g clip-path="url(#p8dcb74cd4c)">
     <use style="fill:#008000;stroke:#000000;" x="680.706716" xlink:href="#m5104aa3d83" y="485.031868"/>
    </g>
   </g>
   <g id="matplotlib.axis_1">
    <g id="xtick_1">
     <g id="line2d_1">
      <defs>
       <path d="M 0 0 
L 0 3.5 
" id="md4596f7087" style="stroke:#000000;stroke-width:0.8;"/>
      </defs>
      <g>
       <use style="stroke:#000000;stroke-width:0.8;" x="125.047804" xlink:href="#md4596f7087" y="512.64"/>
      </g>
     </g>
     <g id="text_1">
      <!-- 0 -->
      <defs>
       <path d="M 31.78125 66.40625 
Q 24.171875 66.40625 20.328125 58.90625 
Q 16.5 51.421875 16.5 36.375 
Q 16.5 21.390625 20.328125 13.890625 
Q 24.171875 6.390625 31.78125 6.390625 
Q 39.453125 6.390625 43.28125 13.890625 
Q 47.125 21.390625 47.125 36.375 
Q 47.125 51.421875 43.28125 58.90625 
Q 39.453125 66.40625 31.78125 66.40625 
M 31.78125 74.21875 
Q 44.046875 74.21875 50.515625 64.515625 
Q 56.984375 54.828125 56.984375 36.375 
Q 56.984375 17.96875 50.515625 8.265625 
Q 44.046875 -1.421875 31.78125 -1.421875 
Q 19.53125 -1.421875 13.0625 8.265625 
Q 6.59375 17.96875 6.59375 36.375 
Q 6.59375 54.828125 13.0625 64.515625 
Q 19.53125 74.21875 31.78125 74.21875 
" id="DejaVuSans-30"/>
      </defs>
      <g transform="translate(121.866554 527.238438)scale(0.1 -0.1)">
       <use xlink:href="#DejaVuSans-30"/>
      </g>
     </g>
    </g>
    <g id="xtick_2">
     <g id="line2d_2">
      <g>
       <use style="stroke:#000000;stroke-width:0.8;" x="217.657622" xlink:href="#md4596f7087" y="512.64"/>
      </g>
     </g>
     <g id="text_2">
      <!-- 50 -->
      <defs>
       <path d="M 10.796875 72.90625 
L 49.515625 72.90625 
L 49.515625 64.59375 
L 19.828125 64.59375 
L 19.828125 46.734375 
Q 21.96875 47.46875 24.109375 47.828125 
Q 26.265625 48.1875 28.421875 48.1875 
Q 40.625 48.1875 47.75 41.5 
Q 54.890625 34.8125 54.890625 23.390625 
Q 54.890625 11.625 47.5625 5.09375 
Q 40.234375 -1.421875 26.90625 -1.421875 
Q 22.3125 -1.421875 17.546875 -0.640625 
Q 12.796875 0.140625 7.71875 1.703125 
L 7.71875 11.625 
Q 12.109375 9.234375 16.796875 8.0625 
Q 21.484375 6.890625 26.703125 6.890625 
Q 35.15625 6.890625 40.078125 11.328125 
Q 45.015625 15.765625 45.015625 23.390625 
Q 45.015625 31 40.078125 35.4375 
Q 35.15625 39.890625 26.703125 39.890625 
Q 22.75 39.890625 18.8125 39.015625 
Q 14.890625 38.140625 10.796875 36.28125 
z
" id="DejaVuSans-35"/>
      </defs>
      <g transform="translate(211.295122 527.238438)scale(0.1 -0.1)">
       <use xlink:href="#DejaVuSans-35"/>
       <use x="63.623047" xlink:href="#DejaVuSans-30"/>
      </g>
     </g>
    </g>
    <g id="xtick_3">
     <g id="line2d_3">
      <g>
       <use style="stroke:#000000;stroke-width:0.8;" x="310.267441" xlink:href="#md4596f7087" y="512.64"/>
      </g>
     </g>
     <g id="text_3">
      <!-- 100 -->
      <defs>
       <path d="M 12.40625 8.296875 
L 28.515625 8.296875 
L 28.515625 63.921875 
L 10.984375 60.40625 
L 10.984375 69.390625 
L 28.421875 72.90625 
L 38.28125 72.90625 
L 38.28125 8.296875 
L 54.390625 8.296875 
L 54.390625 0 
L 12.40625 0 
z
" id="DejaVuSans-31"/>
      </defs>
      <g transform="translate(300.723691 527.238438)scale(0.1 -0.1)">
       <use xlink:href="#DejaVuSans-31"/>
       <use x="63.623047" xlink:href="#DejaVuSans-30"/>
       <use x="127.246094" xlink:href="#DejaVuSans-30"/>
      </g>
     </g>
    </g>
    <g id="xtick_4">
     <g id="line2d_4">
      <g>
       <use style="stroke:#000000;stroke-width:0.8;" x="402.87726" xlink:href="#md4596f7087" y="512.64"/>
      </g>
     </g>
     <g id="text_4">
      <!-- 150 -->
      <g transform="translate(393.33351 527.238438)scale(0.1 -0.1)">
       <use xlink:href="#DejaVuSans-31"/>
       <use x="63.623047" xlink:href="#DejaVuSans-35"/>
       <use x="127.246094" xlink:href="#DejaVuSans-30"/>
      </g>
     </g>
    </g>
    <g id="xtick_5">
     <g id="line2d_5">
      <g>
       <use style="stroke:#000000;stroke-width:0.8;" x="495.487079" xlink:href="#md4596f7087" y="512.64"/>
      </g>
     </g>
     <g id="text_5">
      <!-- 200 -->
      <defs>
       <path d="M 19.1875 8.296875 
L 53.609375 8.296875 
L 53.609375 0 
L 7.328125 0 
L 7.328125 8.296875 
Q 12.9375 14.109375 22.625 23.890625 
Q 32.328125 33.6875 34.8125 36.53125 
Q 39.546875 41.84375 41.421875 45.53125 
Q 43.3125 49.21875 43.3125 52.78125 
Q 43.3125 58.59375 39.234375 62.25 
Q 35.15625 65.921875 28.609375 65.921875 
Q 23.96875 65.921875 18.8125 64.3125 
Q 13.671875 62.703125 7.8125 59.421875 
L 7.8125 69.390625 
Q 13.765625 71.78125 18.9375 73 
Q 24.125 74.21875 28.421875 74.21875 
Q 39.75 74.21875 46.484375 68.546875 
Q 53.21875 62.890625 53.21875 53.421875 
Q 53.21875 48.921875 51.53125 44.890625 
Q 49.859375 40.875 45.40625 35.40625 
Q 44.1875 33.984375 37.640625 27.21875 
Q 31.109375 20.453125 19.1875 8.296875 
" id="DejaVuSans-32"/>
      </defs>
      <g transform="translate(485.943329 527.238438)scale(0.1 -0.1)">
       <use xlink:href="#DejaVuSans-32"/>
       <use x="63.623047" xlink:href="#DejaVuSans-30"/>
       <use x="127.246094" xlink:href="#DejaVuSans-30"/>
      </g>
     </g>
    </g>
    <g id="xtick_6">
     <g id="line2d_6">
      <g>
       <use style="stroke:#000000;stroke-width:0.8;" x="588.096897" xlink:href="#md4596f7087" y="512.64"/>
      </g>
     </g>
     <g id="text_6">
      <!-- 250 -->
      <g transform="translate(578.553147 527.238438)scale(0.1 -0.1)">
       <use xlink:href="#DejaVuSans-32"/>
       <use x="63.623047" xlink:href="#DejaVuSans-35"/>
       <use x="127.246094" xlink:href="#DejaVuSans-30"/>
      </g>
     </g>
    </g>
    <g id="xtick_7">
     <g id="line2d_7">
      <g>
       <use style="stroke:#000000;stroke-width:0.8;" x="680.706716" xlink:href="#md4596f7087" y="512.64"/>
      </g>
     </g>
     <g id="text_7">
      <!-- 300 -->
      <defs>
       <path d="M 40.578125 39.3125 
Q 47.65625 37.796875 51.625 33 
Q 55.609375 28.21875 55.609375 21.1875 
Q 55.609375 10.40625 48.1875 4.484375 
Q 40.765625 -1.421875 27.09375 -1.421875 
Q 22.515625 -1.421875 17.65625 -0.515625 
Q 12.796875 0.390625 7.625 2.203125 
L 7.625 11.71875 
Q 11.71875 9.328125 16.59375 8.109375 
Q 21.484375 6.890625 26.8125 6.890625 
Q 36.078125 6.890625 40.9375 10.546875 
Q 45.796875 14.203125 45.796875 21.1875 
Q 45.796875 27.640625 41.28125 31.265625 
Q 36.765625 34.90625 28.71875 34.90625 
L 20.21875 34.90625 
L 20.21875 43.015625 
L 29.109375 43.015625 
Q 36.375 43.015625 40.234375 45.921875 
Q 44.09375 48.828125 44.09375 54.296875 
Q 44.09375 59.90625 40.109375 62.90625 
Q 36.140625 65.921875 28.71875 65.921875 
Q 24.65625 65.921875 20.015625 65.03125 
Q 15.375 64.15625 9.8125 62.3125 
L 9.8125 71.09375 
Q 15.4375 72.65625 20.34375 73.4375 
Q 25.25 74.21875 29.59375 74.21875 
Q 40.828125 74.21875 47.359375 69.109375 
Q 53.90625 64.015625 53.90625 55.328125 
Q 53.90625 49.265625 50.4375 45.09375 
Q 46.96875 40.921875 40.578125 39.3125 
" id="DejaVuSans-33"/>
      </defs>
      <g transform="translate(671.162966 527.238438)scale(0.1 -0.1)">
       <use xlink:href="#DejaVuSans-33"/>
       <use x="63.623047" xlink:href="#DejaVuSans-30"/>
       <use x="127.246094" xlink:href="#DejaVuSans-30"/>
      </g>
     </g>
    </g>
    <g id="text_8">
     <!-- PCA dimensions -->
     <defs>
      <path d="M 19.671875 64.796875 
L 19.671875 37.40625 
L 32.078125 37.40625 
Q 38.96875 37.40625 42.71875 40.96875 
Q 46.484375 44.53125 46.484375 51.125 
Q 46.484375 57.671875 42.71875 61.234375 
Q 38.96875 64.796875 32.078125 64.796875 
z
M 9.8125 72.90625 
L 32.078125 72.90625 
Q 44.34375 72.90625 50.609375 67.359375 
Q 56.890625 61.8125 56.890625 51.125 
Q 56.890625 40.328125 50.609375 34.8125 
Q 44.34375 29.296875 32.078125 29.296875 
L 19.671875 29.296875 
L 19.671875 0 
L 9.8125 0 
z
" id="DejaVuSans-50"/>
      <path d="M 64.40625 67.28125 
L 64.40625 56.890625 
Q 59.421875 61.53125 53.78125 63.8125 
Q 48.140625 66.109375 41.796875 66.109375 
Q 29.296875 66.109375 22.65625 58.46875 
Q 16.015625 50.828125 16.015625 36.375 
Q 16.015625 21.96875 22.65625 14.328125 
Q 29.296875 6.6875 41.796875 6.6875 
Q 48.140625 6.6875 53.78125 8.984375 
Q 59.421875 11.28125 64.40625 15.921875 
L 64.40625 5.609375 
Q 59.234375 2.09375 53.4375 0.328125 
Q 47.65625 -1.421875 41.21875 -1.421875 
Q 24.65625 -1.421875 15.125 8.703125 
Q 5.609375 18.84375 5.609375 36.375 
Q 5.609375 53.953125 15.125 64.078125 
Q 24.65625 74.21875 41.21875 74.21875 
Q 47.75 74.21875 53.53125 72.484375 
Q 59.328125 70.75 64.40625 67.28125 
" id="DejaVuSans-43"/>
      <path d="M 34.1875 63.1875 
L 20.796875 26.90625 
L 47.609375 26.90625 
z
M 28.609375 72.90625 
L 39.796875 72.90625 
L 67.578125 0 
L 57.328125 0 
L 50.6875 18.703125 
L 17.828125 18.703125 
L 11.1875 0 
L 0.78125 0 
z
" id="DejaVuSans-41"/>
      <path id="DejaVuSans-20"/>
      <path d="M 45.40625 46.390625 
L 45.40625 75.984375 
L 54.390625 75.984375 
L 54.390625 0 
L 45.40625 0 
L 45.40625 8.203125 
Q 42.578125 3.328125 38.25 0.953125 
Q 33.9375 -1.421875 27.875 -1.421875 
Q 17.96875 -1.421875 11.734375 6.484375 
Q 5.515625 14.40625 5.515625 27.296875 
Q 5.515625 40.1875 11.734375 48.09375 
Q 17.96875 56 27.875 56 
Q 33.9375 56 38.25 53.625 
Q 42.578125 51.265625 45.40625 46.390625 
M 14.796875 27.296875 
Q 14.796875 17.390625 18.875 11.75 
Q 22.953125 6.109375 30.078125 6.109375 
Q 37.203125 6.109375 41.296875 11.75 
Q 45.40625 17.390625 45.40625 27.296875 
Q 45.40625 37.203125 41.296875 42.84375 
Q 37.203125 48.484375 30.078125 48.484375 
Q 22.953125 48.484375 18.875 42.84375 
Q 14.796875 37.203125 14.796875 27.296875 
" id="DejaVuSans-64"/>
      <path d="M 9.421875 54.6875 
L 18.40625 54.6875 
L 18.40625 0 
L 9.421875 0 
z
M 9.421875 75.984375 
L 18.40625 75.984375 
L 18.40625 64.59375 
L 9.421875 64.59375 
z
" id="DejaVuSans-69"/>
      <path d="M 52 44.1875 
Q 55.375 50.25 60.0625 53.125 
Q 64.75 56 71.09375 56 
Q 79.640625 56 84.28125 50.015625 
Q 88.921875 44.046875 88.921875 33.015625 
L 88.921875 0 
L 79.890625 0 
L 79.890625 32.71875 
Q 79.890625 40.578125 77.09375 44.375 
Q 74.3125 48.1875 68.609375 48.1875 
Q 61.625 48.1875 57.5625 43.546875 
Q 53.515625 38.921875 53.515625 30.90625 
L 53.515625 0 
L 44.484375 0 
L 44.484375 32.71875 
Q 44.484375 40.625 41.703125 44.40625 
Q 38.921875 48.1875 33.109375 48.1875 
Q 26.21875 48.1875 22.15625 43.53125 
Q 18.109375 38.875 18.109375 30.90625 
L 18.109375 0 
L 9.078125 0 
L 9.078125 54.6875 
L 18.109375 54.6875 
L 18.109375 46.1875 
Q 21.1875 51.21875 25.484375 53.609375 
Q 29.78125 56 35.6875 56 
Q 41.65625 56 45.828125 52.96875 
Q 50 49.953125 52 44.1875 
" id="DejaVuSans-6d"/>
      <path d="M 56.203125 29.59375 
L 56.203125 25.203125 
L 14.890625 25.203125 
Q 15.484375 15.921875 20.484375 11.0625 
Q 25.484375 6.203125 34.421875 6.203125 
Q 39.59375 6.203125 44.453125 7.46875 
Q 49.3125 8.734375 54.109375 11.28125 
L 54.109375 2.78125 
Q 49.265625 0.734375 44.1875 -0.34375 
Q 39.109375 -1.421875 33.890625 -1.421875 
Q 20.796875 -1.421875 13.15625 6.1875 
Q 5.515625 13.8125 5.515625 26.8125 
Q 5.515625 40.234375 12.765625 48.109375 
Q 20.015625 56 32.328125 56 
Q 43.359375 56 49.78125 48.890625 
Q 56.203125 41.796875 56.203125 29.59375 
M 47.21875 32.234375 
Q 47.125 39.59375 43.09375 43.984375 
Q 39.0625 48.390625 32.421875 48.390625 
Q 24.90625 48.390625 20.390625 44.140625 
Q 15.875 39.890625 15.1875 32.171875 
z
" id="DejaVuSans-65"/>
      <path d="M 54.890625 33.015625 
L 54.890625 0 
L 45.90625 0 
L 45.90625 32.71875 
Q 45.90625 40.484375 42.875 44.328125 
Q 39.84375 48.1875 33.796875 48.1875 
Q 26.515625 48.1875 22.3125 43.546875 
Q 18.109375 38.921875 18.109375 30.90625 
L 18.109375 0 
L 9.078125 0 
L 9.078125 54.6875 
L 18.109375 54.6875 
L 18.109375 46.1875 
Q 21.34375 51.125 25.703125 53.5625 
Q 30.078125 56 35.796875 56 
Q 45.21875 56 50.046875 50.171875 
Q 54.890625 44.34375 54.890625 33.015625 
" id="DejaVuSans-6e"/>
      <path d="M 44.28125 53.078125 
L 44.28125 44.578125 
Q 40.484375 46.53125 36.375 47.5 
Q 32.28125 48.484375 27.875 48.484375 
Q 21.1875 48.484375 17.84375 46.4375 
Q 14.5 44.390625 14.5 40.28125 
Q 14.5 37.15625 16.890625 35.375 
Q 19.28125 33.59375 26.515625 31.984375 
L 29.59375 31.296875 
Q 39.15625 29.25 43.1875 25.515625 
Q 47.21875 21.78125 47.21875 15.09375 
Q 47.21875 7.46875 41.1875 3.015625 
Q 35.15625 -1.421875 24.609375 -1.421875 
Q 20.21875 -1.421875 15.453125 -0.5625 
Q 10.6875 0.296875 5.421875 2 
L 5.421875 11.28125 
Q 10.40625 8.6875 15.234375 7.390625 
Q 20.0625 6.109375 24.8125 6.109375 
Q 31.15625 6.109375 34.5625 8.28125 
Q 37.984375 10.453125 37.984375 14.40625 
Q 37.984375 18.0625 35.515625 20.015625 
Q 33.0625 21.96875 24.703125 23.78125 
L 21.578125 24.515625 
Q 13.234375 26.265625 9.515625 29.90625 
Q 5.8125 33.546875 5.8125 39.890625 
Q 5.8125 47.609375 11.28125 51.796875 
Q 16.75 56 26.8125 56 
Q 31.78125 56 36.171875 55.265625 
Q 40.578125 54.546875 44.28125 53.078125 
" id="DejaVuSans-73"/>
      <path d="M 30.609375 48.390625 
Q 23.390625 48.390625 19.1875 42.75 
Q 14.984375 37.109375 14.984375 27.296875 
Q 14.984375 17.484375 19.15625 11.84375 
Q 23.34375 6.203125 30.609375 6.203125 
Q 37.796875 6.203125 41.984375 11.859375 
Q 46.1875 17.53125 46.1875 27.296875 
Q 46.1875 37.015625 41.984375 42.703125 
Q 37.796875 48.390625 30.609375 48.390625 
M 30.609375 56 
Q 42.328125 56 49.015625 48.375 
Q 55.71875 40.765625 55.71875 27.296875 
Q 55.71875 13.875 49.015625 6.21875 
Q 42.328125 -1.421875 30.609375 -1.421875 
Q 18.84375 -1.421875 12.171875 6.21875 
Q 5.515625 13.875 5.515625 27.296875 
Q 5.515625 40.765625 12.171875 48.375 
Q 18.84375 56 30.609375 56 
" id="DejaVuSans-6f"/>
     </defs>
     <g transform="translate(365.878906 540.916563)scale(0.1 -0.1)">
      <use xlink:href="#DejaVuSans-50"/>
      <use x="60.302734" xlink:href="#DejaVuSans-43"/>
      <use x="130.126953" xlink:href="#DejaVuSans-41"/>
      <use x="198.535156" xlink:href="#DejaVuSans-20"/>
      <use x="230.322266" xlink:href="#DejaVuSans-64"/>
      <use x="293.798828" xlink:href="#DejaVuSans-69"/>
      <use x="321.582031" xlink:href="#DejaVuSans-6d"/>
      <use x="418.994141" xlink:href="#DejaVuSans-65"/>
      <use x="480.517578" xlink:href="#DejaVuSans-6e"/>
      <use x="543.896484" xlink:href="#DejaVuSans-73"/>
      <use x="595.996094" xlink:href="#DejaVuSans-69"/>
      <use x="623.779297" xlink:href="#DejaVuSans-6f"/>
      <use x="684.960938" xlink:href="#DejaVuSans-6e"/>
      <use x="748.339844" xlink:href="#DejaVuSans-73"/>
     </g>
    </g>
   </g>
   <g id="matplotlib.axis_2">
    <g id="ytick_1">
     <g id="line2d_8">
      <defs>
       <path d="M 0 0 
L -3.5 0 
" id="mc430310c6b" style="stroke:#000000;stroke-width:0.8;"/>
      </defs>
      <g>
       <use style="stroke:#000000;stroke-width:0.8;" x="99" xlink:href="#mc430310c6b" y="492.896349"/>
      </g>
     </g>
     <g id="text_9">
      <!-- 0.0 -->
      <defs>
       <path d="M 10.6875 12.40625 
L 21 12.40625 
L 21 0 
L 10.6875 0 
z
" id="DejaVuSans-2e"/>
      </defs>
      <g transform="translate(76.096875 496.695568)scale(0.1 -0.1)">
       <use xlink:href="#DejaVuSans-30"/>
       <use x="63.623047" xlink:href="#DejaVuSans-2e"/>
       <use x="95.410156" xlink:href="#DejaVuSans-30"/>
      </g>
     </g>
    </g>
    <g id="ytick_2">
     <g id="line2d_9">
      <g>
       <use style="stroke:#000000;stroke-width:0.8;" x="99" xlink:href="#mc430310c6b" y="412.173079"/>
      </g>
     </g>
     <g id="text_10">
      <!-- 0.2 -->
      <g transform="translate(76.096875 415.972298)scale(0.1 -0.1)">
       <use xlink:href="#DejaVuSans-30"/>
       <use x="63.623047" xlink:href="#DejaVuSans-2e"/>
       <use x="95.410156" xlink:href="#DejaVuSans-32"/>
      </g>
     </g>
    </g>
    <g id="ytick_3">
     <g id="line2d_10">
      <g>
       <use style="stroke:#000000;stroke-width:0.8;" x="99" xlink:href="#mc430310c6b" y="331.44981"/>
      </g>
     </g>
     <g id="text_11">
      <!-- 0.4 -->
      <defs>
       <path d="M 37.796875 64.3125 
L 12.890625 25.390625 
L 37.796875 25.390625 
z
M 35.203125 72.90625 
L 47.609375 72.90625 
L 47.609375 25.390625 
L 58.015625 25.390625 
L 58.015625 17.1875 
L 47.609375 17.1875 
L 47.609375 0 
L 37.796875 0 
L 37.796875 17.1875 
L 4.890625 17.1875 
L 4.890625 26.703125 
z
" id="DejaVuSans-34"/>
      </defs>
      <g transform="translate(76.096875 335.249028)scale(0.1 -0.1)">
       <use xlink:href="#DejaVuSans-30"/>
       <use x="63.623047" xlink:href="#DejaVuSans-2e"/>
       <use x="95.410156" xlink:href="#DejaVuSans-34"/>
      </g>
     </g>
    </g>
    <g id="ytick_4">
     <g id="line2d_11">
      <g>
       <use style="stroke:#000000;stroke-width:0.8;" x="99" xlink:href="#mc430310c6b" y="250.72654"/>
      </g>
     </g>
     <g id="text_12">
      <!-- 0.6 -->
      <defs>
       <path d="M 33.015625 40.375 
Q 26.375 40.375 22.484375 35.828125 
Q 18.609375 31.296875 18.609375 23.390625 
Q 18.609375 15.53125 22.484375 10.953125 
Q 26.375 6.390625 33.015625 6.390625 
Q 39.65625 6.390625 43.53125 10.953125 
Q 47.40625 15.53125 47.40625 23.390625 
Q 47.40625 31.296875 43.53125 35.828125 
Q 39.65625 40.375 33.015625 40.375 
M 52.59375 71.296875 
L 52.59375 62.3125 
Q 48.875 64.0625 45.09375 64.984375 
Q 41.3125 65.921875 37.59375 65.921875 
Q 27.828125 65.921875 22.671875 59.328125 
Q 17.53125 52.734375 16.796875 39.40625 
Q 19.671875 43.65625 24.015625 45.921875 
Q 28.375 48.1875 33.59375 48.1875 
Q 44.578125 48.1875 50.953125 41.515625 
Q 57.328125 34.859375 57.328125 23.390625 
Q 57.328125 12.15625 50.6875 5.359375 
Q 44.046875 -1.421875 33.015625 -1.421875 
Q 20.359375 -1.421875 13.671875 8.265625 
Q 6.984375 17.96875 6.984375 36.375 
Q 6.984375 53.65625 15.1875 63.9375 
Q 23.390625 74.21875 37.203125 74.21875 
Q 40.921875 74.21875 44.703125 73.484375 
Q 48.484375 72.75 52.59375 71.296875 
" id="DejaVuSans-36"/>
      </defs>
      <g transform="translate(76.096875 254.525758)scale(0.1 -0.1)">
       <use xlink:href="#DejaVuSans-30"/>
       <use x="63.623047" xlink:href="#DejaVuSans-2e"/>
       <use x="95.410156" xlink:href="#DejaVuSans-36"/>
      </g>
     </g>
    </g>
    <g id="ytick_5">
     <g id="line2d_12">
      <g>
       <use style="stroke:#000000;stroke-width:0.8;" x="99" xlink:href="#mc430310c6b" y="170.00327"/>
      </g>
     </g>
     <g id="text_13">
      <!-- 0.8 -->
      <defs>
       <path d="M 31.78125 34.625 
Q 24.75 34.625 20.71875 30.859375 
Q 16.703125 27.09375 16.703125 20.515625 
Q 16.703125 13.921875 20.71875 10.15625 
Q 24.75 6.390625 31.78125 6.390625 
Q 38.8125 6.390625 42.859375 10.171875 
Q 46.921875 13.96875 46.921875 20.515625 
Q 46.921875 27.09375 42.890625 30.859375 
Q 38.875 34.625 31.78125 34.625 
M 21.921875 38.8125 
Q 15.578125 40.375 12.03125 44.71875 
Q 8.5 49.078125 8.5 55.328125 
Q 8.5 64.0625 14.71875 69.140625 
Q 20.953125 74.21875 31.78125 74.21875 
Q 42.671875 74.21875 48.875 69.140625 
Q 55.078125 64.0625 55.078125 55.328125 
Q 55.078125 49.078125 51.53125 44.71875 
Q 48 40.375 41.703125 38.8125 
Q 48.828125 37.15625 52.796875 32.3125 
Q 56.78125 27.484375 56.78125 20.515625 
Q 56.78125 9.90625 50.3125 4.234375 
Q 43.84375 -1.421875 31.78125 -1.421875 
Q 19.734375 -1.421875 13.25 4.234375 
Q 6.78125 9.90625 6.78125 20.515625 
Q 6.78125 27.484375 10.78125 32.3125 
Q 14.796875 37.15625 21.921875 38.8125 
M 18.3125 54.390625 
Q 18.3125 48.734375 21.84375 45.5625 
Q 25.390625 42.390625 31.78125 42.390625 
Q 38.140625 42.390625 41.71875 45.5625 
Q 45.3125 48.734375 45.3125 54.390625 
Q 45.3125 60.0625 41.71875 63.234375 
Q 38.140625 66.40625 31.78125 66.40625 
Q 25.390625 66.40625 21.84375 63.234375 
Q 18.3125 60.0625 18.3125 54.390625 
" id="DejaVuSans-38"/>
      </defs>
      <g transform="translate(76.096875 173.802489)scale(0.1 -0.1)">
       <use xlink:href="#DejaVuSans-30"/>
       <use x="63.623047" xlink:href="#DejaVuSans-2e"/>
       <use x="95.410156" xlink:href="#DejaVuSans-38"/>
      </g>
     </g>
    </g>
    <g id="ytick_6">
     <g id="line2d_13">
      <g>
       <use style="stroke:#000000;stroke-width:0.8;" x="99" xlink:href="#mc430310c6b" y="89.28"/>
      </g>
     </g>
     <g id="text_14">
      <!-- 1.0 -->
      <g transform="translate(76.096875 93.079219)scale(0.1 -0.1)">
       <use xlink:href="#DejaVuSans-31"/>
       <use x="63.623047" xlink:href="#DejaVuSans-2e"/>
       <use x="95.410156" xlink:href="#DejaVuSans-30"/>
      </g>
     </g>
    </g>
    <g id="text_15">
     <!-- Accuracy vs execution time -->
     <defs>
      <path d="M 48.78125 52.59375 
L 48.78125 44.1875 
Q 44.96875 46.296875 41.140625 47.34375 
Q 37.3125 48.390625 33.40625 48.390625 
Q 24.65625 48.390625 19.8125 42.84375 
Q 14.984375 37.3125 14.984375 27.296875 
Q 14.984375 17.28125 19.8125 11.734375 
Q 24.65625 6.203125 33.40625 6.203125 
Q 37.3125 6.203125 41.140625 7.25 
Q 44.96875 8.296875 48.78125 10.40625 
L 48.78125 2.09375 
Q 45.015625 0.34375 40.984375 -0.53125 
Q 36.96875 -1.421875 32.421875 -1.421875 
Q 20.0625 -1.421875 12.78125 6.34375 
Q 5.515625 14.109375 5.515625 27.296875 
Q 5.515625 40.671875 12.859375 48.328125 
Q 20.21875 56 33.015625 56 
Q 37.15625 56 41.109375 55.140625 
Q 45.0625 54.296875 48.78125 52.59375 
" id="DejaVuSans-63"/>
      <path d="M 8.5 21.578125 
L 8.5 54.6875 
L 17.484375 54.6875 
L 17.484375 21.921875 
Q 17.484375 14.15625 20.5 10.265625 
Q 23.53125 6.390625 29.59375 6.390625 
Q 36.859375 6.390625 41.078125 11.03125 
Q 45.3125 15.671875 45.3125 23.6875 
L 45.3125 54.6875 
L 54.296875 54.6875 
L 54.296875 0 
L 45.3125 0 
L 45.3125 8.40625 
Q 42.046875 3.421875 37.71875 1 
Q 33.40625 -1.421875 27.6875 -1.421875 
Q 18.265625 -1.421875 13.375 4.4375 
Q 8.5 10.296875 8.5 21.578125 
M 31.109375 56 
z
" id="DejaVuSans-75"/>
      <path d="M 41.109375 46.296875 
Q 39.59375 47.171875 37.8125 47.578125 
Q 36.03125 48 33.890625 48 
Q 26.265625 48 22.1875 43.046875 
Q 18.109375 38.09375 18.109375 28.8125 
L 18.109375 0 
L 9.078125 0 
L 9.078125 54.6875 
L 18.109375 54.6875 
L 18.109375 46.1875 
Q 20.953125 51.171875 25.484375 53.578125 
Q 30.03125 56 36.53125 56 
Q 37.453125 56 38.578125 55.875 
Q 39.703125 55.765625 41.0625 55.515625 
z
" id="DejaVuSans-72"/>
      <path d="M 34.28125 27.484375 
Q 23.390625 27.484375 19.1875 25 
Q 14.984375 22.515625 14.984375 16.5 
Q 14.984375 11.71875 18.140625 8.90625 
Q 21.296875 6.109375 26.703125 6.109375 
Q 34.1875 6.109375 38.703125 11.40625 
Q 43.21875 16.703125 43.21875 25.484375 
L 43.21875 27.484375 
z
M 52.203125 31.203125 
L 52.203125 0 
L 43.21875 0 
L 43.21875 8.296875 
Q 40.140625 3.328125 35.546875 0.953125 
Q 30.953125 -1.421875 24.3125 -1.421875 
Q 15.921875 -1.421875 10.953125 3.296875 
Q 6 8.015625 6 15.921875 
Q 6 25.140625 12.171875 29.828125 
Q 18.359375 34.515625 30.609375 34.515625 
L 43.21875 34.515625 
L 43.21875 35.40625 
Q 43.21875 41.609375 39.140625 45 
Q 35.0625 48.390625 27.6875 48.390625 
Q 23 48.390625 18.546875 47.265625 
Q 14.109375 46.140625 10.015625 43.890625 
L 10.015625 52.203125 
Q 14.9375 54.109375 19.578125 55.046875 
Q 24.21875 56 28.609375 56 
Q 40.484375 56 46.34375 49.84375 
Q 52.203125 43.703125 52.203125 31.203125 
" id="DejaVuSans-61"/>
      <path d="M 32.171875 -5.078125 
Q 28.375 -14.84375 24.75 -17.8125 
Q 21.140625 -20.796875 15.09375 -20.796875 
L 7.90625 -20.796875 
L 7.90625 -13.28125 
L 13.1875 -13.28125 
Q 16.890625 -13.28125 18.9375 -11.515625 
Q 21 -9.765625 23.484375 -3.21875 
L 25.09375 0.875 
L 2.984375 54.6875 
L 12.5 54.6875 
L 29.59375 11.921875 
L 46.6875 54.6875 
L 56.203125 54.6875 
z
" id="DejaVuSans-79"/>
      <path d="M 2.984375 54.6875 
L 12.5 54.6875 
L 29.59375 8.796875 
L 46.6875 54.6875 
L 56.203125 54.6875 
L 35.6875 0 
L 23.484375 0 
z
" id="DejaVuSans-76"/>
      <path d="M 54.890625 54.6875 
L 35.109375 28.078125 
L 55.90625 0 
L 45.3125 0 
L 29.390625 21.484375 
L 13.484375 0 
L 2.875 0 
L 24.125 28.609375 
L 4.6875 54.6875 
L 15.28125 54.6875 
L 29.78125 35.203125 
L 44.28125 54.6875 
z
" id="DejaVuSans-78"/>
      <path d="M 18.3125 70.21875 
L 18.3125 54.6875 
L 36.8125 54.6875 
L 36.8125 47.703125 
L 18.3125 47.703125 
L 18.3125 18.015625 
Q 18.3125 11.328125 20.140625 9.421875 
Q 21.96875 7.515625 27.59375 7.515625 
L 36.8125 7.515625 
L 36.8125 0 
L 27.59375 0 
Q 17.1875 0 13.234375 3.875 
Q 9.28125 7.765625 9.28125 18.015625 
L 9.28125 47.703125 
L 2.6875 47.703125 
L 2.6875 54.6875 
L 9.28125 54.6875 
L 9.28125 70.21875 
z
" id="DejaVuSans-74"/>
     </defs>
     <g transform="translate(70.017187 360.026875)rotate(-90)scale(0.1 -0.1)">
      <use xlink:href="#DejaVuSans-41"/>
      <use x="68.392578" xlink:href="#DejaVuSans-63"/>
      <use x="123.373047" xlink:href="#DejaVuSans-63"/>
      <use x="178.353516" xlink:href="#DejaVuSans-75"/>
      <use x="241.732422" xlink:href="#DejaVuSans-72"/>
      <use x="282.845703" xlink:href="#DejaVuSans-61"/>
      <use x="344.125" xlink:href="#DejaVuSans-63"/>
      <use x="399.105469" xlink:href="#DejaVuSans-79"/>
      <use x="458.285156" xlink:href="#DejaVuSans-20"/>
      <use x="490.072266" xlink:href="#DejaVuSans-76"/>
      <use x="549.251953" xlink:href="#DejaVuSans-73"/>
      <use x="601.351562" xlink:href="#DejaVuSans-20"/>
      <use x="633.138672" xlink:href="#DejaVuSans-65"/>
      <use x="694.646484" xlink:href="#DejaVuSans-78"/>
      <use x="753.779297" xlink:href="#DejaVuSans-65"/>
      <use x="815.302734" xlink:href="#DejaVuSans-63"/>
      <use x="870.283203" xlink:href="#DejaVuSans-75"/>
      <use x="933.662109" xlink:href="#DejaVuSans-74"/>
      <use x="972.871094" xlink:href="#DejaVuSans-69"/>
      <use x="1000.654297" xlink:href="#DejaVuSans-6f"/>
      <use x="1061.835938" xlink:href="#DejaVuSans-6e"/>
      <use x="1125.214844" xlink:href="#DejaVuSans-20"/>
      <use x="1157.001953" xlink:href="#DejaVuSans-74"/>
      <use x="1196.210938" xlink:href="#DejaVuSans-69"/>
      <use x="1223.994141" xlink:href="#DejaVuSans-6d"/>
      <use x="1321.40625" xlink:href="#DejaVuSans-65"/>
     </g>
    </g>
   </g>
   <g id="line2d_14">
    <path clip-path="url(#p8dcb74cd4c)" d="M 126.9 390.983221 
L 128.752196 338.513096 
L 130.604393 289.742787 
L 134.308785 166.303453 
L 154.682946 121.569308 
L 175.057106 117.533144 
L 197.283462 116.524104 
L 217.657622 115.515063 
L 238.031782 115.178716 
L 260.258139 116.187757 
L 280.632299 115.85141 
L 301.006459 114.169675 
L 323.232816 113.496981 
L 343.606976 112.824287 
L 363.981136 114.169675 
L 386.207492 113.160634 
L 406.581653 112.824287 
L 426.955813 111.815246 
L 449.182169 112.824287 
L 469.556329 112.151593 
L 489.930489 112.48794 
L 512.156846 112.824287 
L 532.531006 112.151593 
L 552.905166 112.824287 
L 575.131523 111.815246 
L 595.505683 111.815246 
L 615.879843 111.815246 
L 638.106199 111.815246 
L 658.48036 112.151593 
L 680.706716 112.151593 
" style="fill:none;stroke:#0000ff;stroke-linecap:square;stroke-width:2;"/>
   </g>
   <g id="line2d_15">
    <defs>
     <path d="M 0 4 
C 1.060812 4 2.078319 3.578535 2.828427 2.828427 
C 3.578535 2.078319 4 1.060812 4 0 
C 4 -1.060812 3.578535 -2.078319 2.828427 -2.828427 
C 2.078319 -3.578535 1.060812 -4 0 -4 
C -1.060812 -4 -2.078319 -3.578535 -2.828427 -2.828427 
C -3.578535 -2.078319 -4 -1.060812 -4 0 
C -4 1.060812 -3.578535 2.078319 -2.828427 2.828427 
C -2.078319 3.578535 -1.060812 4 0 4 
z
" id="m6cd82e1547" style="stroke:#0000ff;"/>
    </defs>
    <g clip-path="url(#p8dcb74cd4c)">
     <use style="fill:#0000ff;stroke:#0000ff;" x="126.9" xlink:href="#m6cd82e1547" y="390.983221"/>
     <use style="fill:#0000ff;stroke:#0000ff;" x="128.752196" xlink:href="#m6cd82e1547" y="338.513096"/>
     <use style="fill:#0000ff;stroke:#0000ff;" x="130.604393" xlink:href="#m6cd82e1547" y="289.742787"/>
     <use style="fill:#0000ff;stroke:#0000ff;" x="134.308785" xlink:href="#m6cd82e1547" y="166.303453"/>
     <use style="fill:#0000ff;stroke:#0000ff;" x="154.682946" xlink:href="#m6cd82e1547" y="121.569308"/>
     <use style="fill:#0000ff;stroke:#0000ff;" x="175.057106" xlink:href="#m6cd82e1547" y="117.533144"/>
     <use style="fill:#0000ff;stroke:#0000ff;" x="197.283462" xlink:href="#m6cd82e1547" y="116.524104"/>
     <use style="fill:#0000ff;stroke:#0000ff;" x="217.657622" xlink:href="#m6cd82e1547" y="115.515063"/>
     <use style="fill:#0000ff;stroke:#0000ff;" x="238.031782" xlink:href="#m6cd82e1547" y="115.178716"/>
     <use style="fill:#0000ff;stroke:#0000ff;" x="260.258139" xlink:href="#m6cd82e1547" y="116.187757"/>
     <use style="fill:#0000ff;stroke:#0000ff;" x="280.632299" xlink:href="#m6cd82e1547" y="115.85141"/>
     <use style="fill:#0000ff;stroke:#0000ff;" x="301.006459" xlink:href="#m6cd82e1547" y="114.169675"/>
     <use style="fill:#0000ff;stroke:#0000ff;" x="323.232816" xlink:href="#m6cd82e1547" y="113.496981"/>
     <use style="fill:#0000ff;stroke:#0000ff;" x="343.606976" xlink:href="#m6cd82e1547" y="112.824287"/>
     <use style="fill:#0000ff;stroke:#0000ff;" x="363.981136" xlink:href="#m6cd82e1547" y="114.169675"/>
     <use style="fill:#0000ff;stroke:#0000ff;" x="386.207492" xlink:href="#m6cd82e1547" y="113.160634"/>
     <use style="fill:#0000ff;stroke:#0000ff;" x="406.581653" xlink:href="#m6cd82e1547" y="112.824287"/>
     <use style="fill:#0000ff;stroke:#0000ff;" x="426.955813" xlink:href="#m6cd82e1547" y="111.815246"/>
     <use style="fill:#0000ff;stroke:#0000ff;" x="449.182169" xlink:href="#m6cd82e1547" y="112.824287"/>
     <use style="fill:#0000ff;stroke:#0000ff;" x="469.556329" xlink:href="#m6cd82e1547" y="112.151593"/>
     <use style="fill:#0000ff;stroke:#0000ff;" x="489.930489" xlink:href="#m6cd82e1547" y="112.48794"/>
     <use style="fill:#0000ff;stroke:#0000ff;" x="512.156846" xlink:href="#m6cd82e1547" y="112.824287"/>
     <use style="fill:#0000ff;stroke:#0000ff;" x="532.531006" xlink:href="#m6cd82e1547" y="112.151593"/>
     <use style="fill:#0000ff;stroke:#0000ff;" x="552.905166" xlink:href="#m6cd82e1547" y="112.824287"/>
     <use style="fill:#0000ff;stroke:#0000ff;" x="575.131523" xlink:href="#m6cd82e1547" y="111.815246"/>
     <use style="fill:#0000ff;stroke:#0000ff;" x="595.505683" xlink:href="#m6cd82e1547" y="111.815246"/>
     <use style="fill:#0000ff;stroke:#0000ff;" x="615.879843" xlink:href="#m6cd82e1547" y="111.815246"/>
     <use style="fill:#0000ff;stroke:#0000ff;" x="638.106199" xlink:href="#m6cd82e1547" y="111.815246"/>
     <use style="fill:#0000ff;stroke:#0000ff;" x="658.48036" xlink:href="#m6cd82e1547" y="112.151593"/>
     <use style="fill:#0000ff;stroke:#0000ff;" x="680.706716" xlink:href="#m6cd82e1547" y="112.151593"/>
    </g>
   </g>
   <g id="line2d_16">
    <path clip-path="url(#p8dcb74cd4c)" d="M 126.9 287.366842 
L 128.752196 292.023457 
L 130.604393 292.466454 
L 134.308785 291.375381 
L 154.682946 294.657112 
L 175.057106 264.145652 
L 197.283462 153.508909 
L 217.657622 139.652374 
L 238.031782 151.107736 
L 260.258139 113.943978 
L 280.632299 119.150235 
L 301.006459 101.48395 
L 323.232816 106.335778 
L 343.606976 107.01887 
L 363.981136 119.213112 
L 386.207492 117.37135 
L 406.581653 110.580284 
L 426.955813 93.833313 
L 449.182169 116.805118 
L 469.556329 120.90785 
L 489.930489 111.078963 
L 512.156846 119.417667 
L 532.531006 102.693103 
L 552.905166 89.28 
L 575.131523 119.19238 
L 595.505683 114.535982 
L 615.879843 110.937076 
L 638.106199 110.877445 
L 658.48036 114.967193 
L 680.706716 123.161713 
" style="fill:none;stroke:#ff0000;stroke-linecap:square;stroke-width:2;"/>
   </g>
   <g id="line2d_17">
    <defs>
     <path d="M 0 4 
C 1.060812 4 2.078319 3.578535 2.828427 2.828427 
C 3.578535 2.078319 4 1.060812 4 0 
C 4 -1.060812 3.578535 -2.078319 2.828427 -2.828427 
C 2.078319 -3.578535 1.060812 -4 0 -4 
C -1.060812 -4 -2.078319 -3.578535 -2.828427 -2.828427 
C -3.578535 -2.078319 -4 -1.060812 -4 0 
C -4 1.060812 -3.578535 2.078319 -2.828427 2.828427 
C -2.078319 3.578535 -1.060812 4 0 4 
z
" id="m0d79be8a93" style="stroke:#ff0000;"/>
    </defs>
    <g clip-path="url(#p8dcb74cd4c)">
     <use style="fill:#ff0000;stroke:#ff0000;" x="126.9" xlink:href="#m0d79be8a93" y="287.366842"/>
     <use style="fill:#ff0000;stroke:#ff0000;" x="128.752196" xlink:href="#m0d79be8a93" y="292.023457"/>
     <use style="fill:#ff0000;stroke:#ff0000;" x="130.604393" xlink:href="#m0d79be8a93" y="292.466454"/>
     <use style="fill:#ff0000;stroke:#ff0000;" x="134.308785" xlink:href="#m0d79be8a93" y="291.375381"/>
     <use style="fill:#ff0000;stroke:#ff0000;" x="154.682946" xlink:href="#m0d79be8a93" y="294.657112"/>
     <use style="fill:#ff0000;stroke:#ff0000;" x="175.057106" xlink:href="#m0d79be8a93" y="264.145652"/>
     <use style="fill:#ff0000;stroke:#ff0000;" x="197.283462" xlink:href="#m0d79be8a93" y="153.508909"/>
     <use style="fill:#ff0000;stroke:#ff0000;" x="217.657622" xlink:href="#m0d79be8a93" y="139.652374"/>
     <use style="fill:#ff0000;stroke:#ff0000;" x="238.031782" xlink:href="#m0d79be8a93" y="151.107736"/>
     <use style="fill:#ff0000;stroke:#ff0000;" x="260.258139" xlink:href="#m0d79be8a93" y="113.943978"/>
     <use style="fill:#ff0000;stroke:#ff0000;" x="280.632299" xlink:href="#m0d79be8a93" y="119.150235"/>
     <use style="fill:#ff0000;stroke:#ff0000;" x="301.006459" xlink:href="#m0d79be8a93" y="101.48395"/>
     <use style="fill:#ff0000;stroke:#ff0000;" x="323.232816" xlink:href="#m0d79be8a93" y="106.335778"/>
     <use style="fill:#ff0000;stroke:#ff0000;" x="343.606976" xlink:href="#m0d79be8a93" y="107.01887"/>
     <use style="fill:#ff0000;stroke:#ff0000;" x="363.981136" xlink:href="#m0d79be8a93" y="119.213112"/>
     <use style="fill:#ff0000;stroke:#ff0000;" x="386.207492" xlink:href="#m0d79be8a93" y="117.37135"/>
     <use style="fill:#ff0000;stroke:#ff0000;" x="406.581653" xlink:href="#m0d79be8a93" y="110.580284"/>
     <use style="fill:#ff0000;stroke:#ff0000;" x="426.955813" xlink:href="#m0d79be8a93" y="93.833313"/>
     <use style="fill:#ff0000;stroke:#ff0000;" x="449.182169" xlink:href="#m0d79be8a93" y="116.805118"/>
     <use style="fill:#ff0000;stroke:#ff0000;" x="469.556329" xlink:href="#m0d79be8a93" y="120.90785"/>
     <use style="fill:#ff0000;stroke:#ff0000;" x="489.930489" xlink:href="#m0d79be8a93" y="111.078963"/>
     <use style="fill:#ff0000;stroke:#ff0000;" x="512.156846" xlink:href="#m0d79be8a93" y="119.417667"/>
     <use style="fill:#ff0000;stroke:#ff0000;" x="532.531006" xlink:href="#m0d79be8a93" y="102.693103"/>
     <use style="fill:#ff0000;stroke:#ff0000;" x="552.905166" xlink:href="#m0d79be8a93" y="89.28"/>
     <use style="fill:#ff0000;stroke:#ff0000;" x="575.131523" xlink:href="#m0d79be8a93" y="119.19238"/>
     <use style="fill:#ff0000;stroke:#ff0000;" x="595.505683" xlink:href="#m0d79be8a93" y="114.535982"/>
     <use style="fill:#ff0000;stroke:#ff0000;" x="615.879843" xlink:href="#m0d79be8a93" y="110.937076"/>
     <use style="fill:#ff0000;stroke:#ff0000;" x="638.106199" xlink:href="#m0d79be8a93" y="110.877445"/>
     <use style="fill:#ff0000;stroke:#ff0000;" x="658.48036" xlink:href="#m0d79be8a93" y="114.967193"/>
     <use style="fill:#ff0000;stroke:#ff0000;" x="680.706716" xlink:href="#m0d79be8a93" y="123.161713"/>
    </g>
   </g>
   <g id="line2d_18">
    <path clip-path="url(#p8dcb74cd4c)" d="M 126.9 492.025859 
L 128.752196 492.036068 
L 130.604393 492.074608 
L 134.308785 492.38847 
L 154.682946 492.48 
L 175.057106 492.268422 
L 197.283462 491.749003 
L 217.657622 491.447092 
L 238.031782 491.133058 
L 260.258139 490.905303 
L 280.632299 490.859358 
L 301.006459 490.582832 
L 323.232816 490.248305 
L 343.606976 489.948084 
L 363.981136 489.670189 
L 386.207492 489.341428 
L 406.581653 489.016265 
L 426.955813 488.730135 
L 449.182169 488.389288 
L 469.556329 488.102597 
L 489.930489 487.778862 
L 512.156846 487.500578 
L 532.531006 487.172079 
L 552.905166 486.858194 
L 575.131523 486.560816 
L 595.505683 486.246856 
L 615.879843 485.944265 
L 638.106199 485.620051 
L 658.48036 485.370704 
L 680.706716 485.003036 
" style="fill:none;stroke:#008000;stroke-linecap:square;stroke-width:2;"/>
   </g>
   <g id="line2d_19">
    <defs>
     <path d="M 0 4 
C 1.060812 4 2.078319 3.578535 2.828427 2.828427 
C 3.578535 2.078319 4 1.060812 4 0 
C 4 -1.060812 3.578535 -2.078319 2.828427 -2.828427 
C 2.078319 -3.578535 1.060812 -4 0 -4 
C -1.060812 -4 -2.078319 -3.578535 -2.828427 -2.828427 
C -3.578535 -2.078319 -4 -1.060812 -4 0 
C -4 1.060812 -3.578535 2.078319 -2.828427 2.828427 
C -2.078319 3.578535 -1.060812 4 0 4 
z
" id="ma35a3ba1d5" style="stroke:#008000;"/>
    </defs>
    <g clip-path="url(#p8dcb74cd4c)">
     <use style="fill:#008000;stroke:#008000;" x="126.9" xlink:href="#ma35a3ba1d5" y="492.025859"/>
     <use style="fill:#008000;stroke:#008000;" x="128.752196" xlink:href="#ma35a3ba1d5" y="492.036068"/>
     <use style="fill:#008000;stroke:#008000;" x="130.604393" xlink:href="#ma35a3ba1d5" y="492.074608"/>
     <use style="fill:#008000;stroke:#008000;" x="134.308785" xlink:href="#ma35a3ba1d5" y="492.38847"/>
     <use style="fill:#008000;stroke:#008000;" x="154.682946" xlink:href="#ma35a3ba1d5" y="492.48"/>
     <use style="fill:#008000;stroke:#008000;" x="175.057106" xlink:href="#ma35a3ba1d5" y="492.268422"/>
     <use style="fill:#008000;stroke:#008000;" x="197.283462" xlink:href="#ma35a3ba1d5" y="491.749003"/>
     <use style="fill:#008000;stroke:#008000;" x="217.657622" xlink:href="#ma35a3ba1d5" y="491.447092"/>
     <use style="fill:#008000;stroke:#008000;" x="238.031782" xlink:href="#ma35a3ba1d5" y="491.133058"/>
     <use style="fill:#008000;stroke:#008000;" x="260.258139" xlink:href="#ma35a3ba1d5" y="490.905303"/>
     <use style="fill:#008000;stroke:#008000;" x="280.632299" xlink:href="#ma35a3ba1d5" y="490.859358"/>
     <use style="fill:#008000;stroke:#008000;" x="301.006459" xlink:href="#ma35a3ba1d5" y="490.582832"/>
     <use style="fill:#008000;stroke:#008000;" x="323.232816" xlink:href="#ma35a3ba1d5" y="490.248305"/>
     <use style="fill:#008000;stroke:#008000;" x="343.606976" xlink:href="#ma35a3ba1d5" y="489.948084"/>
     <use style="fill:#008000;stroke:#008000;" x="363.981136" xlink:href="#ma35a3ba1d5" y="489.670189"/>
     <use style="fill:#008000;stroke:#008000;" x="386.207492" xlink:href="#ma35a3ba1d5" y="489.341428"/>
     <use style="fill:#008000;stroke:#008000;" x="406.581653" xlink:href="#ma35a3ba1d5" y="489.016265"/>
     <use style="fill:#008000;stroke:#008000;" x="426.955813" xlink:href="#ma35a3ba1d5" y="488.730135"/>
     <use style="fill:#008000;stroke:#008000;" x="449.182169" xlink:href="#ma35a3ba1d5" y="488.389288"/>
     <use style="fill:#008000;stroke:#008000;" x="469.556329" xlink:href="#ma35a3ba1d5" y="488.102597"/>
     <use style="fill:#008000;stroke:#008000;" x="489.930489" xlink:href="#ma35a3ba1d5" y="487.778862"/>
     <use style="fill:#008000;stroke:#008000;" x="512.156846" xlink:href="#ma35a3ba1d5" y="487.500578"/>
     <use style="fill:#008000;stroke:#008000;" x="532.531006" xlink:href="#ma35a3ba1d5" y="487.172079"/>
     <use style="fill:#008000;stroke:#008000;" x="552.905166" xlink:href="#ma35a3ba1d5" y="486.858194"/>
     <use style="fill:#008000;stroke:#008000;" x="575.131523" xlink:href="#ma35a3ba1d5" y="486.560816"/>
     <use style="fill:#008000;stroke:#008000;" x="595.505683" xlink:href="#ma35a3ba1d5" y="486.246856"/>
     <use style="fill:#008000;stroke:#008000;" x="615.879843" xlink:href="#ma35a3ba1d5" y="485.944265"/>
     <use style="fill:#008000;stroke:#008000;" x="638.106199" xlink:href="#ma35a3ba1d5" y="485.620051"/>
     <use style="fill:#008000;stroke:#008000;" x="658.48036" xlink:href="#ma35a3ba1d5" y="485.370704"/>
     <use style="fill:#008000;stroke:#008000;" x="680.706716" xlink:href="#ma35a3ba1d5" y="485.003036"/>
    </g>
   </g>
   <g id="patch_3">
    <path d="M 99 512.64 
L 99 69.12 
" style="fill:none;stroke:#000000;stroke-linecap:square;stroke-linejoin:miter;stroke-width:0.8;"/>
   </g>
   <g id="patch_4">
    <path d="M 712.8 512.64 
L 712.8 69.12 
" style="fill:none;stroke:#000000;stroke-linecap:square;stroke-linejoin:miter;stroke-width:0.8;"/>
   </g>
   <g id="patch_5">
    <path d="M 99 512.64 
L 712.8 512.64 
" style="fill:none;stroke:#000000;stroke-linecap:square;stroke-linejoin:miter;stroke-width:0.8;"/>
   </g>
   <g id="patch_6">
    <path d="M 99 69.12 
L 712.8 69.12 
" style="fill:none;stroke:#000000;stroke-linecap:square;stroke-linejoin:miter;stroke-width:0.8;"/>
   </g>
   <g id="text_16">
    <!-- How PCA dimension reduction affects model accuracy (using SvmAlgorithm)? -->
    <defs>
     <path d="M 9.8125 72.90625 
L 19.671875 72.90625 
L 19.671875 43.015625 
L 55.515625 43.015625 
L 55.515625 72.90625 
L 65.375 72.90625 
L 65.375 0 
L 55.515625 0 
L 55.515625 34.71875 
L 19.671875 34.71875 
L 19.671875 0 
L 9.8125 0 
z
" id="DejaVuSans-48"/>
     <path d="M 4.203125 54.6875 
L 13.1875 54.6875 
L 24.421875 12.015625 
L 35.59375 54.6875 
L 46.1875 54.6875 
L 57.421875 12.015625 
L 68.609375 54.6875 
L 77.59375 54.6875 
L 63.28125 0 
L 52.6875 0 
L 40.921875 44.828125 
L 29.109375 0 
L 18.5 0 
z
" id="DejaVuSans-77"/>
     <path d="M 37.109375 75.984375 
L 37.109375 68.5 
L 28.515625 68.5 
Q 23.6875 68.5 21.796875 66.546875 
Q 19.921875 64.59375 19.921875 59.515625 
L 19.921875 54.6875 
L 34.71875 54.6875 
L 34.71875 47.703125 
L 19.921875 47.703125 
L 19.921875 0 
L 10.890625 0 
L 10.890625 47.703125 
L 2.296875 47.703125 
L 2.296875 54.6875 
L 10.890625 54.6875 
L 10.890625 58.5 
Q 10.890625 67.625 15.140625 71.796875 
Q 19.390625 75.984375 28.609375 75.984375 
z
" id="DejaVuSans-66"/>
     <path d="M 9.421875 75.984375 
L 18.40625 75.984375 
L 18.40625 0 
L 9.421875 0 
z
" id="DejaVuSans-6c"/>
     <path d="M 31 75.875 
Q 24.46875 64.65625 21.28125 53.65625 
Q 18.109375 42.671875 18.109375 31.390625 
Q 18.109375 20.125 21.3125 9.0625 
Q 24.515625 -2 31 -13.1875 
L 23.1875 -13.1875 
Q 15.875 -1.703125 12.234375 9.375 
Q 8.59375 20.453125 8.59375 31.390625 
Q 8.59375 42.28125 12.203125 53.3125 
Q 15.828125 64.359375 23.1875 75.875 
z
" id="DejaVuSans-28"/>
     <path d="M 45.40625 27.984375 
Q 45.40625 37.75 41.375 43.109375 
Q 37.359375 48.484375 30.078125 48.484375 
Q 22.859375 48.484375 18.828125 43.109375 
Q 14.796875 37.75 14.796875 27.984375 
Q 14.796875 18.265625 18.828125 12.890625 
Q 22.859375 7.515625 30.078125 7.515625 
Q 37.359375 7.515625 41.375 12.890625 
Q 45.40625 18.265625 45.40625 27.984375 
M 54.390625 6.78125 
Q 54.390625 -7.171875 48.1875 -13.984375 
Q 42 -20.796875 29.203125 -20.796875 
Q 24.46875 -20.796875 20.265625 -20.09375 
Q 16.0625 -19.390625 12.109375 -17.921875 
L 12.109375 -9.1875 
Q 16.0625 -11.328125 19.921875 -12.34375 
Q 23.78125 -13.375 27.78125 -13.375 
Q 36.625 -13.375 41.015625 -8.765625 
Q 45.40625 -4.15625 45.40625 5.171875 
L 45.40625 9.625 
Q 42.625 4.78125 38.28125 2.390625 
Q 33.9375 0 27.875 0 
Q 17.828125 0 11.671875 7.65625 
Q 5.515625 15.328125 5.515625 27.984375 
Q 5.515625 40.671875 11.671875 48.328125 
Q 17.828125 56 27.875 56 
Q 33.9375 56 38.28125 53.609375 
Q 42.625 51.21875 45.40625 46.390625 
L 45.40625 54.6875 
L 54.390625 54.6875 
z
" id="DejaVuSans-67"/>
     <path d="M 53.515625 70.515625 
L 53.515625 60.890625 
Q 47.90625 63.578125 42.921875 64.890625 
Q 37.9375 66.21875 33.296875 66.21875 
Q 25.25 66.21875 20.875 63.09375 
Q 16.5 59.96875 16.5 54.203125 
Q 16.5 49.359375 19.40625 46.890625 
Q 22.3125 44.4375 30.421875 42.921875 
L 36.375 41.703125 
Q 47.40625 39.59375 52.65625 34.296875 
Q 57.90625 29 57.90625 20.125 
Q 57.90625 9.515625 50.796875 4.046875 
Q 43.703125 -1.421875 29.984375 -1.421875 
Q 24.8125 -1.421875 18.96875 -0.25 
Q 13.140625 0.921875 6.890625 3.21875 
L 6.890625 13.375 
Q 12.890625 10.015625 18.65625 8.296875 
Q 24.421875 6.59375 29.984375 6.59375 
Q 38.421875 6.59375 43.015625 9.90625 
Q 47.609375 13.234375 47.609375 19.390625 
Q 47.609375 24.75 44.3125 27.78125 
Q 41.015625 30.8125 33.5 32.328125 
L 27.484375 33.5 
Q 16.453125 35.6875 11.515625 40.375 
Q 6.59375 45.0625 6.59375 53.421875 
Q 6.59375 63.09375 13.40625 68.65625 
Q 20.21875 74.21875 32.171875 74.21875 
Q 37.3125 74.21875 42.625 73.28125 
Q 47.953125 72.359375 53.515625 70.515625 
" id="DejaVuSans-53"/>
     <path d="M 54.890625 33.015625 
L 54.890625 0 
L 45.90625 0 
L 45.90625 32.71875 
Q 45.90625 40.484375 42.875 44.328125 
Q 39.84375 48.1875 33.796875 48.1875 
Q 26.515625 48.1875 22.3125 43.546875 
Q 18.109375 38.921875 18.109375 30.90625 
L 18.109375 0 
L 9.078125 0 
L 9.078125 75.984375 
L 18.109375 75.984375 
L 18.109375 46.1875 
Q 21.34375 51.125 25.703125 53.5625 
Q 30.078125 56 35.796875 56 
Q 45.21875 56 50.046875 50.171875 
Q 54.890625 44.34375 54.890625 33.015625 
" id="DejaVuSans-68"/>
     <path d="M 8.015625 75.875 
L 15.828125 75.875 
Q 23.140625 64.359375 26.78125 53.3125 
Q 30.421875 42.28125 30.421875 31.390625 
Q 30.421875 20.453125 26.78125 9.375 
Q 23.140625 -1.703125 15.828125 -13.1875 
L 8.015625 -13.1875 
Q 14.5 -2 17.703125 9.0625 
Q 20.90625 20.125 20.90625 31.390625 
Q 20.90625 42.671875 17.703125 53.65625 
Q 14.5 64.65625 8.015625 75.875 
" id="DejaVuSans-29"/>
     <path d="M 19.09375 12.40625 
L 29 12.40625 
L 29 0 
L 19.09375 0 
z
M 28.71875 19.578125 
L 19.390625 19.578125 
L 19.390625 27.09375 
Q 19.390625 32.03125 20.75 35.203125 
Q 22.125 38.375 26.515625 42.578125 
L 30.90625 46.921875 
Q 33.6875 49.515625 34.9375 51.8125 
Q 36.1875 54.109375 36.1875 56.5 
Q 36.1875 60.84375 32.984375 63.53125 
Q 29.78125 66.21875 24.515625 66.21875 
Q 20.65625 66.21875 16.28125 64.5 
Q 11.921875 62.796875 7.171875 59.515625 
L 7.171875 68.703125 
Q 11.765625 71.484375 16.46875 72.84375 
Q 21.1875 74.21875 26.21875 74.21875 
Q 35.203125 74.21875 40.640625 69.484375 
Q 46.09375 64.75 46.09375 56.984375 
Q 46.09375 53.265625 44.328125 49.921875 
Q 42.578125 46.578125 38.1875 42.390625 
L 33.890625 38.1875 
Q 31.59375 35.890625 30.640625 34.59375 
Q 29.6875 33.296875 29.296875 32.078125 
Q 29 31.0625 28.859375 29.59375 
Q 28.71875 28.125 28.71875 25.59375 
z
" id="DejaVuSans-3f"/>
    </defs>
    <g transform="translate(173.215313 63.12)scale(0.12 -0.12)">
     <use xlink:href="#DejaVuSans-48"/>
     <use x="75.195312" xlink:href="#DejaVuSans-6f"/>
     <use x="136.376953" xlink:href="#DejaVuSans-77"/>
     <use x="218.164062" xlink:href="#DejaVuSans-20"/>
     <use x="249.951172" xlink:href="#DejaVuSans-50"/>
     <use x="310.253906" xlink:href="#DejaVuSans-43"/>
     <use x="380.078125" xlink:href="#DejaVuSans-41"/>
     <use x="448.486328" xlink:href="#DejaVuSans-20"/>
     <use x="480.273438" xlink:href="#DejaVuSans-64"/>
     <use x="543.75" xlink:href="#DejaVuSans-69"/>
     <use x="571.533203" xlink:href="#DejaVuSans-6d"/>
     <use x="668.945312" xlink:href="#DejaVuSans-65"/>
     <use x="730.46875" xlink:href="#DejaVuSans-6e"/>
     <use x="793.847656" xlink:href="#DejaVuSans-73"/>
     <use x="845.947266" xlink:href="#DejaVuSans-69"/>
     <use x="873.730469" xlink:href="#DejaVuSans-6f"/>
     <use x="934.912109" xlink:href="#DejaVuSans-6e"/>
     <use x="998.291016" xlink:href="#DejaVuSans-20"/>
     <use x="1030.078125" xlink:href="#DejaVuSans-72"/>
     <use x="1071.160156" xlink:href="#DejaVuSans-65"/>
     <use x="1132.683594" xlink:href="#DejaVuSans-64"/>
     <use x="1196.160156" xlink:href="#DejaVuSans-75"/>
     <use x="1259.539062" xlink:href="#DejaVuSans-63"/>
     <use x="1314.519531" xlink:href="#DejaVuSans-74"/>
     <use x="1353.728516" xlink:href="#DejaVuSans-69"/>
     <use x="1381.511719" xlink:href="#DejaVuSans-6f"/>
     <use x="1442.693359" xlink:href="#DejaVuSans-6e"/>
     <use x="1506.072266" xlink:href="#DejaVuSans-20"/>
     <use x="1537.859375" xlink:href="#DejaVuSans-61"/>
     <use x="1599.138672" xlink:href="#DejaVuSans-66"/>
     <use x="1634.34375" xlink:href="#DejaVuSans-66"/>
     <use x="1669.548828" xlink:href="#DejaVuSans-65"/>
     <use x="1731.072266" xlink:href="#DejaVuSans-63"/>
     <use x="1786.052734" xlink:href="#DejaVuSans-74"/>
     <use x="1825.261719" xlink:href="#DejaVuSans-73"/>
     <use x="1877.361328" xlink:href="#DejaVuSans-20"/>
     <use x="1909.148438" xlink:href="#DejaVuSans-6d"/>
     <use x="2006.560547" xlink:href="#DejaVuSans-6f"/>
     <use x="2067.742188" xlink:href="#DejaVuSans-64"/>
     <use x="2131.21875" xlink:href="#DejaVuSans-65"/>
     <use x="2192.742188" xlink:href="#DejaVuSans-6c"/>
     <use x="2220.525391" xlink:href="#DejaVuSans-20"/>
     <use x="2252.3125" xlink:href="#DejaVuSans-61"/>
     <use x="2313.591797" xlink:href="#DejaVuSans-63"/>
     <use x="2368.572266" xlink:href="#DejaVuSans-63"/>
     <use x="2423.552734" xlink:href="#DejaVuSans-75"/>
     <use x="2486.931641" xlink:href="#DejaVuSans-72"/>
     <use x="2528.044922" xlink:href="#DejaVuSans-61"/>
     <use x="2589.324219" xlink:href="#DejaVuSans-63"/>
     <use x="2644.304688" xlink:href="#DejaVuSans-79"/>
     <use x="2703.484375" xlink:href="#DejaVuSans-20"/>
     <use x="2735.271484" xlink:href="#DejaVuSans-28"/>
     <use x="2774.285156" xlink:href="#DejaVuSans-75"/>
     <use x="2837.664062" xlink:href="#DejaVuSans-73"/>
     <use x="2889.763672" xlink:href="#DejaVuSans-69"/>
     <use x="2917.546875" xlink:href="#DejaVuSans-6e"/>
     <use x="2980.925781" xlink:href="#DejaVuSans-67"/>
     <use x="3044.402344" xlink:href="#DejaVuSans-20"/>
     <use x="3076.189453" xlink:href="#DejaVuSans-53"/>
     <use x="3139.666016" xlink:href="#DejaVuSans-76"/>
     <use x="3198.845703" xlink:href="#DejaVuSans-6d"/>
     <use x="3296.257812" xlink:href="#DejaVuSans-41"/>
     <use x="3364.666016" xlink:href="#DejaVuSans-6c"/>
     <use x="3392.449219" xlink:href="#DejaVuSans-67"/>
     <use x="3455.925781" xlink:href="#DejaVuSans-6f"/>
     <use x="3517.107422" xlink:href="#DejaVuSans-72"/>
     <use x="3558.220703" xlink:href="#DejaVuSans-69"/>
     <use x="3586.003906" xlink:href="#DejaVuSans-74"/>
     <use x="3625.212891" xlink:href="#DejaVuSans-68"/>
     <use x="3688.591797" xlink:href="#DejaVuSans-6d"/>
     <use x="3786.003906" xlink:href="#DejaVuSans-29"/>
     <use x="3825.017578" xlink:href="#DejaVuSans-3f"/>
    </g>
   </g>
   <g id="legend_1">
    <g id="patch_7">
     <path d="M 488.954688 321.73625 
L 705.8 321.73625 
Q 707.8 321.73625 707.8 319.73625 
L 707.8 262.02375 
Q 707.8 260.02375 705.8 260.02375 
L 488.954688 260.02375 
Q 486.954688 260.02375 486.954688 262.02375 
L 486.954688 319.73625 
Q 486.954688 321.73625 488.954688 321.73625 
z
" style="fill:#ffffff;opacity:0.8;stroke:#cccccc;stroke-linejoin:miter;"/>
    </g>
    <g id="patch_8">
     <path d="M 490.954688 271.622187 
L 510.954688 271.622187 
L 510.954688 264.622187 
L 490.954688 264.622187 
z
" style="fill:#0000ff;stroke:#0000ff;stroke-linejoin:miter;"/>
    </g>
    <g id="text_17">
     <!-- Accuracy -->
     <g transform="translate(518.954688 271.622187)scale(0.1 -0.1)">
      <use xlink:href="#DejaVuSans-41"/>
      <use x="68.392578" xlink:href="#DejaVuSans-63"/>
      <use x="123.373047" xlink:href="#DejaVuSans-63"/>
      <use x="178.353516" xlink:href="#DejaVuSans-75"/>
      <use x="241.732422" xlink:href="#DejaVuSans-72"/>
      <use x="282.845703" xlink:href="#DejaVuSans-61"/>
      <use x="344.125" xlink:href="#DejaVuSans-63"/>
      <use x="399.105469" xlink:href="#DejaVuSans-79"/>
     </g>
    </g>
    <g id="patch_9">
     <path d="M 490.954688 286.300313 
L 510.954688 286.300313 
L 510.954688 279.300313 
L 490.954688 279.300313 
z
" style="fill:#ff0000;stroke:#ff0000;stroke-linejoin:miter;"/>
    </g>
    <g id="text_18">
     <!-- Relative model training time -->
     <defs>
      <path d="M 44.390625 34.1875 
Q 47.5625 33.109375 50.5625 29.59375 
Q 53.5625 26.078125 56.59375 19.921875 
L 66.609375 0 
L 56 0 
L 46.6875 18.703125 
Q 43.0625 26.03125 39.671875 28.421875 
Q 36.28125 30.8125 30.421875 30.8125 
L 19.671875 30.8125 
L 19.671875 0 
L 9.8125 0 
L 9.8125 72.90625 
L 32.078125 72.90625 
Q 44.578125 72.90625 50.734375 67.671875 
Q 56.890625 62.453125 56.890625 51.90625 
Q 56.890625 45.015625 53.6875 40.46875 
Q 50.484375 35.9375 44.390625 34.1875 
M 19.671875 64.796875 
L 19.671875 38.921875 
L 32.078125 38.921875 
Q 39.203125 38.921875 42.84375 42.21875 
Q 46.484375 45.515625 46.484375 51.90625 
Q 46.484375 58.296875 42.84375 61.546875 
Q 39.203125 64.796875 32.078125 64.796875 
z
" id="DejaVuSans-52"/>
     </defs>
     <g transform="translate(518.954688 286.300313)scale(0.1 -0.1)">
      <use xlink:href="#DejaVuSans-52"/>
      <use x="69.419922" xlink:href="#DejaVuSans-65"/>
      <use x="130.943359" xlink:href="#DejaVuSans-6c"/>
      <use x="158.726562" xlink:href="#DejaVuSans-61"/>
      <use x="220.005859" xlink:href="#DejaVuSans-74"/>
      <use x="259.214844" xlink:href="#DejaVuSans-69"/>
      <use x="286.998047" xlink:href="#DejaVuSans-76"/>
      <use x="346.177734" xlink:href="#DejaVuSans-65"/>
      <use x="407.701172" xlink:href="#DejaVuSans-20"/>
      <use x="439.488281" xlink:href="#DejaVuSans-6d"/>
      <use x="536.900391" xlink:href="#DejaVuSans-6f"/>
      <use x="598.082031" xlink:href="#DejaVuSans-64"/>
      <use x="661.558594" xlink:href="#DejaVuSans-65"/>
      <use x="723.082031" xlink:href="#DejaVuSans-6c"/>
      <use x="750.865234" xlink:href="#DejaVuSans-20"/>
      <use x="782.652344" xlink:href="#DejaVuSans-74"/>
      <use x="821.861328" xlink:href="#DejaVuSans-72"/>
      <use x="862.974609" xlink:href="#DejaVuSans-61"/>
      <use x="924.253906" xlink:href="#DejaVuSans-69"/>
      <use x="952.037109" xlink:href="#DejaVuSans-6e"/>
      <use x="1015.416016" xlink:href="#DejaVuSans-69"/>
      <use x="1043.199219" xlink:href="#DejaVuSans-6e"/>
      <use x="1106.578125" xlink:href="#DejaVuSans-67"/>
      <use x="1170.054688" xlink:href="#DejaVuSans-20"/>
      <use x="1201.841797" xlink:href="#DejaVuSans-74"/>
      <use x="1241.050781" xlink:href="#DejaVuSans-69"/>
      <use x="1268.833984" xlink:href="#DejaVuSans-6d"/>
      <use x="1366.246094" xlink:href="#DejaVuSans-65"/>
     </g>
    </g>
    <g id="patch_10">
     <path d="M 490.954688 300.978437 
L 510.954688 300.978437 
L 510.954688 293.978437 
L 490.954688 293.978437 
z
" style="fill:#008000;stroke:#008000;stroke-linejoin:miter;"/>
    </g>
    <g id="text_19">
     <!-- Relative predicting time using model -->
     <defs>
      <path d="M 18.109375 8.203125 
L 18.109375 -20.796875 
L 9.078125 -20.796875 
L 9.078125 54.6875 
L 18.109375 54.6875 
L 18.109375 46.390625 
Q 20.953125 51.265625 25.265625 53.625 
Q 29.59375 56 35.59375 56 
Q 45.5625 56 51.78125 48.09375 
Q 58.015625 40.1875 58.015625 27.296875 
Q 58.015625 14.40625 51.78125 6.484375 
Q 45.5625 -1.421875 35.59375 -1.421875 
Q 29.59375 -1.421875 25.265625 0.953125 
Q 20.953125 3.328125 18.109375 8.203125 
M 48.6875 27.296875 
Q 48.6875 37.203125 44.609375 42.84375 
Q 40.53125 48.484375 33.40625 48.484375 
Q 26.265625 48.484375 22.1875 42.84375 
Q 18.109375 37.203125 18.109375 27.296875 
Q 18.109375 17.390625 22.1875 11.75 
Q 26.265625 6.109375 33.40625 6.109375 
Q 40.53125 6.109375 44.609375 11.75 
Q 48.6875 17.390625 48.6875 27.296875 
" id="DejaVuSans-70"/>
     </defs>
     <g transform="translate(518.954688 300.978437)scale(0.1 -0.1)">
      <use xlink:href="#DejaVuSans-52"/>
      <use x="69.419922" xlink:href="#DejaVuSans-65"/>
      <use x="130.943359" xlink:href="#DejaVuSans-6c"/>
      <use x="158.726562" xlink:href="#DejaVuSans-61"/>
      <use x="220.005859" xlink:href="#DejaVuSans-74"/>
      <use x="259.214844" xlink:href="#DejaVuSans-69"/>
      <use x="286.998047" xlink:href="#DejaVuSans-76"/>
      <use x="346.177734" xlink:href="#DejaVuSans-65"/>
      <use x="407.701172" xlink:href="#DejaVuSans-20"/>
      <use x="439.488281" xlink:href="#DejaVuSans-70"/>
      <use x="502.964844" xlink:href="#DejaVuSans-72"/>
      <use x="544.046875" xlink:href="#DejaVuSans-65"/>
      <use x="605.570312" xlink:href="#DejaVuSans-64"/>
      <use x="669.046875" xlink:href="#DejaVuSans-69"/>
      <use x="696.830078" xlink:href="#DejaVuSans-63"/>
      <use x="751.810547" xlink:href="#DejaVuSans-74"/>
      <use x="791.019531" xlink:href="#DejaVuSans-69"/>
      <use x="818.802734" xlink:href="#DejaVuSans-6e"/>
      <use x="882.181641" xlink:href="#DejaVuSans-67"/>
      <use x="945.658203" xlink:href="#DejaVuSans-20"/>
      <use x="977.445312" xlink:href="#DejaVuSans-74"/>
      <use x="1016.654297" xlink:href="#DejaVuSans-69"/>
      <use x="1044.4375" xlink:href="#DejaVuSans-6d"/>
      <use x="1141.849609" xlink:href="#DejaVuSans-65"/>
      <use x="1203.373047" xlink:href="#DejaVuSans-20"/>
      <use x="1235.160156" xlink:href="#DejaVuSans-75"/>
      <use x="1298.539062" xlink:href="#DejaVuSans-73"/>
      <use x="1350.638672" xlink:href="#DejaVuSans-69"/>
      <use x="1378.421875" xlink:href="#DejaVuSans-6e"/>
      <use x="1441.800781" xlink:href="#DejaVuSans-67"/>
      <use x="1505.277344" xlink:href="#DejaVuSans-20"/>
      <use x="1537.064453" xlink:href="#DejaVuSans-6d"/>
      <use x="1634.476562" xlink:href="#DejaVuSans-6f"/>
      <use x="1695.658203" xlink:href="#DejaVuSans-64"/>
      <use x="1759.134766" xlink:href="#DejaVuSans-65"/>
      <use x="1820.658203" xlink:href="#DejaVuSans-6c"/>
     </g>
    </g>
    <g id="patch_11">
     <path d="M 490.954688 315.656563 
L 510.954688 315.656563 
L 510.954688 308.656563 
L 490.954688 308.656563 
z
" style="stroke:#000000;stroke-linejoin:miter;"/>
    </g>
    <g id="text_20">
     <!-- * = no PCA -->
     <defs>
      <path d="M 47.015625 60.890625 
L 29.5 51.421875 
L 47.015625 41.890625 
L 44.1875 37.109375 
L 27.78125 47.015625 
L 27.78125 28.609375 
L 22.21875 28.609375 
L 22.21875 47.015625 
L 5.8125 37.109375 
L 2.984375 41.890625 
L 20.515625 51.421875 
L 2.984375 60.890625 
L 5.8125 65.71875 
L 22.21875 55.8125 
L 22.21875 74.21875 
L 27.78125 74.21875 
L 27.78125 55.8125 
L 44.1875 65.71875 
z
" id="DejaVuSans-2a"/>
      <path d="M 10.59375 45.40625 
L 73.1875 45.40625 
L 73.1875 37.203125 
L 10.59375 37.203125 
z
M 10.59375 25.484375 
L 73.1875 25.484375 
L 73.1875 17.1875 
L 10.59375 17.1875 
z
" id="DejaVuSans-3d"/>
     </defs>
     <g transform="translate(518.954688 315.656563)scale(0.1 -0.1)">
      <use xlink:href="#DejaVuSans-2a"/>
      <use x="50" xlink:href="#DejaVuSans-20"/>
      <use x="81.787109" xlink:href="#DejaVuSans-3d"/>
      <use x="165.576172" xlink:href="#DejaVuSans-20"/>
      <use x="197.363281" xlink:href="#DejaVuSans-6e"/>
      <use x="260.742188" xlink:href="#DejaVuSans-6f"/>
      <use x="321.923828" xlink:href="#DejaVuSans-20"/>
      <use x="353.710938" xlink:href="#DejaVuSans-50"/>
      <use x="414.013672" xlink:href="#DejaVuSans-43"/>
      <use x="483.837891" xlink:href="#DejaVuSans-41"/>
     </g>
    </g>
   </g>
  </g>
 </g>
 <defs>
  <clipPath id="p8dcb74cd4c">
   <rect height="443.52" width="613.8" x="99" y="69.12"/>
  </clipPath>
 </defs>
</svg>
